<?xml version="1.0" encoding="UTF-8" standalone="no"?>
<svg
   width="13.995833in"
   height="15.133333in"
   viewBox="0 0 4198.7499 4540"
   version="1.1"
   id="svg18180"
   sodipodi:docname="PathCondividi1.svg"
   inkscape:export-filename="PathCondividi123.svg"
   inkscape:export-xdpi="96"
   inkscape:export-ydpi="96"
   inkscape:version="1.2.2 (b0a8486, 2022-12-01)"
   xmlns:inkscape="http://www.inkscape.org/namespaces/inkscape"
   xmlns:sodipodi="http://sodipodi.sourceforge.net/DTD/sodipodi-0.dtd"
   xmlns="http://www.w3.org/2000/svg"
   xmlns:svg="http://www.w3.org/2000/svg">
  <defs
     id="defs18184" />
  <sodipodi:namedview
     id="namedview18182"
     pagecolor="#ffffff"
     bordercolor="#000000"
     borderopacity="0.25"
     inkscape:showpageshadow="2"
     inkscape:pageopacity="0.0"
     inkscape:pagecheckerboard="0"
     inkscape:deskcolor="#d1d1d1"
     inkscape:document-units="in"
     showgrid="false"
     inkscape:zoom="0.5"
     inkscape:cx="763"
     inkscape:cy="757"
     inkscape:window-width="1431"
     inkscape:window-height="869"
     inkscape:window-x="98"
     inkscape:window-y="25"
     inkscape:window-maximized="0"
     inkscape:current-layer="svg18180" />
  <path
     id="Senza nome"
     fill="none"
     stroke="#000000"
     stroke-width="7.14127"
     d="m 2166.403,2805.873 c -35.6901,143.069 -52.5835,267.6195 -89.3047,266.0762 -37.5936,0.7716 -58.4525,-125.3863 -80.8183,-267.2979 -17.5278,-133.874 -51.949,-252.766 -59.8802,-304.2065 -22.8417,-107.7037 -65.5112,-272.5063 -135.8605,-348.8312 -54.4869,-62.6932 -439.1474,-90.021 -649.164,-186.4077 -157.82979,-54.7199 -277.74869,-149.5634 -292.65924,-155.9935 -152.67454,8.0376 -95.17374,208.9772 -39.65572,247.5577 76.29761,45.0104 178.45074,89.6994 275.13136,126.9938 74.1562,28.6138 158.0677,45.8464 150.1366,68.3516 1.031,17.747 -119.9189,13.6318 -216.9961,11.7028 -154.73664,-6.9445 -259.82428,-31.8289 -341.11848,-68.8018 -204.227,-73.9458 -440.1786,-331.1485 -517.5072,-298.9981 -69.556101,31.7645 -7.9312,191.2945 46.873,245.3714 142.5227,150.0778 306.0629,231.2252 577.546,329.7982 133.957,30.0284 340.16678,65.3938 374.90518,90.3424 214.1408,88.4135 436.6094,461.6789 281.0796,958.2731 -166.078,388.8262 -495.22051,612.2711 -824.36298,880.7265 136.8122,8.0376 384.66048,-3.2151 646.38828,-12.8602 374.7464,-16.0751 646.3881,-20.8977 745.5274,-22.5052 27.759,-4.8226 410.4367,0 787.1661,19.2902 307.3318,6.4301 711.8201,41.7954 749.4931,18.5186 35.6901,-34.5938 -142.7606,-103.717 -188.3647,-135.8674 -432.2473,-247.5576 -613.7119,-473.4459 -688.4233,-779.5814 -60.1181,-229.1034 20.2244,-397.1211 105.4842,-628.6035 63.4492,-146.2841 174.4852,-287.7456 224.0548,-300.6057 727.6825,-67.5157 1084.584,-425.992 1040.011,-618.0582 -86.2909,-121.3997 -258.7933,177.5985 -595.8669,291.7322 -214.1409,51.4406 -446.1268,75.5533 -509.576,45.0105 -9.9139,-96.451 150.6917,-43.403 290.1213,-123.5859 306.6973,-160.9446 169.8851,-328.1264 120.3154,-321.6963 -45.6041,-12.8602 -235.9515,147.8915 -414.4023,180.0419 -97.1565,38.5804 -547.2489,73.9458 -602.7669,198.5605 -49.5697,81.1475 -86.2909,253.9877 -96.1255,298.1623 -25.8555,98.8301 -52.5835,195.2811 -71.3803,297.3906 z m 244.8344,-924.3223 c 0,0 210.1754,-218.6223 257.7622,-223.4449 39.6557,-1.6075 -19.8278,212.1923 -43.6213,260.4178 51.5525,-1.6075 182.4163,-32.1504 309.3146,-112.5262 57.5008,-70.7308 91.2082,-180.0419 69.3976,-300.6057 -39.6558,-78.7683 -144.7434,-101.2736 -285.5212,-69.1232 -144.7434,33.7578 -265.6934,130.2088 -297.4179,213.7997 -29.7418,70.7308 -41.6385,163.9668 -9.914,231.4825 z m -602.7669,-262.0253 c 11.8967,-9.6451 -120.95,-236.305 -93.191,-236.305 49.5697,-25.7203 218.1065,151.1066 259.745,155.9292 9.9139,-30.5429 -103.1049,-220.2299 -158.6229,-270.0629 -89.2253,-93.236 -261.7277,-141.4615 -398.54,-130.2089 -43.6213,9.6451 -37.6729,117.3487 -25.7762,199.3321 83.277,133.4239 103.1049,200.9397 416.3851,281.3155 z m 422.3334,-260.4178 c -51.5524,-30.5428 -99.1393,-215.4073 -95.1737,-255.5952 -1.9828,-86.8059 128.8811,-257.20268 273.6245,-279.70798 111.036,-9.6451 148.7089,125.38636 178.4507,192.90208 23.7934,242.7351 -69.3975,327.9335 -188.3647,424.3845 -15.8623,-16.0752 61.4664,-263.6328 25.7762,-270.0629 -35.6901,-25.7202 -162.5884,136.639 -194.313,188.0795 z m -957.6856,270.0629 c -27.759,-20.8977 -154.6573,-98.0585 -198.2786,-83.5909 -23.7934,27.3278 116.9844,155.9292 105.0877,167.1818 -35.6902,-6.4301 -180.43353,-45.0105 -245.86547,-115.7412 -101.12209,-93.236 -95.17373,-160.7517 -77.32866,-223.4449 49.56966,-43.403 249.83103,-3.215 281.55563,30.5428 59.4836,45.0105 134.8294,106.0961 134.8294,225.0524 z m 31.7246,-837.51638 c -25.7762,9.6451 -99.1393,8.0376 -154.6573,-11.2526 -29.7418,-1.6075 -79.3114,-56.2631 -116.9844,-43.403 -13.8795,65.9082 154.6573,178.4344 200.2614,196.11709 7.9312,17.68269 -122.9327,12.86014 -198.2786,0 3.9656,0 -170.51958,-51.44059 -231.98598,-189.68699 -5.9483,-22.5053 -39.6557,-151.1067 31.72461,-188.0796 188.36467,-81.9833 432.24737,-9.6451 469.92027,236.3051 z m 430.2645,-212.1923 c -23.7934,14.4677 91.2082,228.2675 71.3803,255.5953 -152.6745,-72.3383 -315.263,-188.0796 -368.7982,-292.5682 -71.3803,-208.9772 -15.8623,-342.4011 128.8811,-334.3635 162.5884,6.43 285.5212,102.8811 410.4367,276.4929 11.8967,101.2736 11.8967,250.7727 -33.7074,260.4178 -31.7245,-11.2526 -146.7261,-192.9021 -208.1925,-165.5743 z m 727.6825,138.2465 c -83.277,-14.4677 -170.5196,-200.9397 -186.3819,-278.1005 -21.8107,-112.5262 23.7934,-177.6628 69.3975,-229.8749 49.5697,-48.2255 126.8983,-115.7413 222.072,-128.6014 122.9328,11.2526 285.5212,173.6119 271.6417,305.4283 -31.7246,165.5742 -144.7434,245.9501 -192.3302,273.2779 -29.7418,8.0376 -67.4147,-307.0358 -152.6745,-292.5682 -71.3803,17.6827 -29.7418,355.2614 -31.7246,350.4388 z m 382.6777,339.18608 c 21.8106,-9.6451 228.0204,-112.52617 249.831,-101.27355 79.3114,27.32779 -194.313,212.19225 -188.3647,220.22985 31.7246,22.5052 198.2786,-48.2255 307.3319,-99.6661 91.2081,-54.6556 214.1409,-163.96671 170.5196,-353.65368 -9.914,-43.403 -178.4508,-36.9729 -321.2114,20.8977 -146.7261,62.6931 -251.8138,167.18175 -218.1064,313.46578 z" />
  <path
     style="fill:#806600;stroke-width:7.57192"
     d="m 3357.1351,4401.8349 c -18.5009,-1.3784 -137.7045,-7.0395 -264.897,-12.5818 -127.1925,-5.5421 -318.2969,-14.0083 -424.6761,-18.8138 -291.1652,-13.1525 -889.7726,-10.0243 -1328.6892,6.9435 -544.32928,21.043 -647.20258,23.9015 -667.96038,18.5602 -16.7799,-4.3178 1.8169,-21.7041 177.68095,-166.115 108.0323,-88.7108 227.89693,-191.9727 266.36593,-229.4707 184.8611,-180.1956 322.3078,-389.7744 362.1744,-552.2442 81.654,-332.7663 -1.7869,-665.4972 -209.025,-833.5127 -67.96,-55.0976 -128.7453,-77.5203 -320.06783,-118.0677 -145.50045,-30.836 -177.40815,-40.3181 -285.92045,-84.9667 -67.1787,-27.6416 -152.4171,-66.3908 -189.4185,-86.1095 -82.2826,-43.8498 -211.9025,-144.0849 -256.7754,-198.5645 -61.6971,-74.9057 -87.2925,-186.1016 -49.8288,-216.4748 l 17.1587,-13.9112 40.0016,17.651 c 22.0009,9.7081 90.9104,54.6738 153.1322,99.9237 151.9763,110.5228 232.9831,159.0061 323.3662,193.5378 120.6456,46.0936 240.10873,64.355 420.47128,64.2744 106.6898,-0.04 130.3461,-3.6861 130.3461,-20.0472 0,-16.5697 -22.3979,-31.0305 -73.0938,-47.1919 -70.9255,-22.6105 -228.95141,-88.6477 -298.07416,-124.5616 -55.70736,-28.9438 -66.78122,-38.0936 -83.50872,-68.9993 -22.9309,-42.3673 -30.5228,-109.657 -16.3109,-144.5693 8.8282,-21.6869 48.31517,-51.1613 68.66661,-51.255 3.04489,-0.014 25.75034,13.2291 50.45655,29.4292 73.06653,47.9103 144.71002,84.8261 236.29622,121.7564 119.7682,48.2942 162.9786,60.5517 379.5518,107.6677 199.2028,43.337 221.8,49.4582 259.7655,70.3648 37.7215,20.7721 83.2607,104.9134 118.848,219.5917 21.7432,70.0662 71.3573,300.4861 93.9119,436.1493 37.8471,227.6463 54.6018,279.1224 89.5419,275.1022 29.7816,-3.4268 44.3388,-37.7809 77.4891,-182.8697 64.8215,-283.7043 133.6183,-551.548 156.908,-610.8838 30.6445,-78.0743 51.1473,-102.7473 108.5656,-130.6488 66.4164,-32.2741 116.5675,-46.1024 327.8643,-90.4015 282.7951,-59.2893 293.8984,-63.1791 495.2179,-173.4824 51.5437,-28.2409 98.6709,-51.3471 104.727,-51.3471 12.76,0 40.985,23.6218 55.5401,46.4821 15.7265,24.7004 12.2142,85.1685 -6.9918,120.3695 -9.3788,17.1897 -38.7952,49.7345 -65.3692,72.3218 -87.5631,74.4262 -163.6532,106.2769 -308.9503,129.3239 -58.692,9.3095 -89.1664,30.0162 -89.1664,60.5861 0,26.5622 19.4353,31.2013 126.1414,30.1092 144.9414,-1.4829 380.1724,-44.3612 470.8809,-85.8318 74.3959,-34.0128 189.8721,-107.4197 301.7942,-191.8475 134.7305,-101.633 177.3309,-117.8561 203.8777,-77.6408 13.1424,19.9091 3.285,86.3473 -19.2736,129.8992 -121.0675,233.7366 -500.1618,422.4679 -955.2811,475.5845 -67.9662,7.9323 -70.2887,8.8365 -106.4558,41.4497 -82.6437,74.5226 -150.8875,191.5195 -219.6763,376.6127 -70.633,190.0549 -82.3585,242.0508 -82.4648,365.686 -0.074,91.5139 3.0302,116.5689 23.1966,186.9542 93.7729,327.2901 295.9068,541.158 749.4007,792.9042 106.5859,59.1685 131.7113,77.9101 118.6581,88.5093 -7.1227,5.7834 -129.811,8.8592 -186.1219,4.666 z"
     id="path18456" />
  <path
     style="fill:#554400;stroke-width:7.57192"
     d="m 2640.9111,1901.0133 c 10.8612,-22.9472 29.8841,-90.779 39.3492,-140.3128 12.6787,-66.3501 8.9413,-104.8224 -10.4724,-107.8047 -19.433,-2.9853 -91.7635,53.0605 -181.6279,140.7358 -81.9121,79.9166 -83.9997,79.7773 -84.7794,-5.6598 -1.16,-126.9692 60.9805,-225.3243 184.6615,-292.2838 130.0931,-70.431 280.3372,-86.2689 358.6984,-37.8121 43.1662,26.6932 52.9939,48.5888 52.9939,118.0691 0,75.896 -10.8887,120.2905 -44.0676,179.6707 -23.385,41.852 -31.0487,48.8077 -84.0838,76.3171 -60.8232,31.5491 -158.2645,66.9724 -207.3858,75.392 -24.417,4.1852 -27.818,3.2633 -23.2861,-6.3115 z"
     id="path19264" />
  <path
     style="fill:#aa8800;stroke-width:7.57192"
     d="m 2982.9154,4380.5797 c -458.4191,-23.8736 -1183.6155,-24.9814 -1761.7746,-2.6908 -217.3837,8.381 -431.19338,14.3037 -475.13258,13.1614 l -79.8895,-2.0767 126.4088,-105.6764 c 307.92208,-257.4195 361.27988,-307.0518 464.14188,-431.7353 76.043,-92.1748 162.3454,-231.3974 195.1512,-314.8169 42.3715,-107.7437 54.4256,-182.3107 54.5557,-337.4826 0.1364,-161.4033 -11.1746,-225.2067 -61.1613,-345.0316 -39.5604,-94.8316 -90.9445,-168.3547 -159.9248,-228.8292 -69.8296,-61.2191 -139.9219,-88.6397 -344.57094,-134.7994 -156.61704,-35.3256 -261.86684,-71.8389 -412.03834,-142.9444 -128.5187,-60.853 -277.7092,-175.4633 -328.0182,-251.9882 -49.8787,-75.8706 -61.3064,-177.1911 -21.3856,-189.6108 17.8241,-5.5452 80.5698,31.4791 221.9447,130.9626 148.5889,104.5601 245.5585,158.4861 335.6271,186.6464 123.13581,38.4986 165.93558,44.0116 345.53638,44.5079 l 163.9838,0.4541 2.5399,-17.7325 c 3.0694,-21.4292 -9.1517,-28.65 -107.6578,-63.6097 -101.864,-36.1512 -267.10829,-111.5416 -304.48002,-138.9146 -21.58664,-15.8111 -35.86776,-34.3956 -44.46296,-57.8609 -17.3891,-47.4727 -16.5754,-113.0882 1.6682,-134.5484 16.6775,-19.6178 36.68275,-33.3766 48.97776,-33.6849 4.75589,-0.1186 44.49042,21.2074 88.29899,47.3926 86.09903,51.463 254.22223,124.7425 348.75353,152.0104 32.3763,9.3391 144.0114,35.9905 248.0781,59.2256 104.0666,23.235 204.0282,48.8996 222.1369,57.0323 90.7897,40.7749 147.8988,203.0889 231.8567,658.9783 37.6937,204.6755 46.5842,241.0098 64.7686,264.702 17.5413,22.8545 45.5055,17.0979 63.7326,-13.1192 8.1723,-13.5481 48.8774,-163.726 90.4559,-333.7289 41.5784,-170.003 86.8639,-344.027 100.6345,-386.72 54.0392,-167.5383 82.0081,-184.373 433.0869,-260.6796 263.6964,-57.3142 309.7112,-71.977 442.0525,-140.8627 62.1777,-32.3643 127.4924,-65.2699 145.1439,-73.1236 l 32.0933,-14.2795 23.7573,22.7183 c 27.8081,26.5923 35.9831,52.9708 28.567,92.1778 -8.5129,45.0048 -34.5052,79.3249 -99.4105,131.261 -71.56,57.2609 -132.2062,83.4158 -252.5648,108.9239 -96.091,20.365 -121.9366,34.9864 -121.9366,68.9816 0,32.9804 23.818,38.5346 143.9609,33.571 193.507,-7.9946 392.0608,-50.1453 496.3268,-105.3649 63.9964,-33.8927 166.8019,-101.4555 276.3397,-181.6083 149.4227,-109.3376 191.5242,-113.2183 183.021,-16.8697 -5.269,59.7034 -44.26,127.2551 -115.2668,199.6979 -165.4781,168.8254 -494.2134,304.3652 -839.5431,346.1498 -38.2811,4.6319 -80.6136,13.851 -94.0722,20.4866 -34.3702,16.9459 -105.1261,100.1431 -148.7591,174.916 -42.6469,73.0833 -109.619,231.7846 -145.7315,345.3352 -77.6692,244.2188 -48.267,455.2101 96.9734,695.8873 116.4086,192.8999 284.6772,334.5766 641.2952,539.9492 61.5536,35.4479 110.4387,68.0558 108.6333,72.462 -5.5401,13.5222 -204.6004,10.9291 -552.7212,-7.2005 z"
     id="path19266" />
  <path
     style="fill:#aa8800;stroke-width:7.57192"
     d="m 3071.2146,4381.8049 c -541.5762,-26.6681 -1199.6541,-28.8578 -1871.0974,-6.2256 -173.4444,5.8462 -361.22359,9.7175 -417.28708,8.6029 l -101.9337,-2.0265 197.41091,-167.0367 c 267.67207,-226.4875 355.70017,-316.1552 458.80437,-467.3498 102.8311,-150.7938 150.8963,-270.4682 166.752,-415.1843 11.8524,-108.1783 5.2325,-279.924 -13.6796,-354.902 -35.8148,-141.99 -108.2634,-268.7736 -198.2045,-346.8542 -70.0162,-60.783 -130.852,-88.3176 -272.665,-123.4095 -262.79678,-65.0294 -391.26098,-110.1918 -537.91688,-189.1079 -79.7909,-42.9355 -209.1094,-141.2443 -251.4961,-191.1888 -55.7551,-65.6964 -88.8432,-176.6189 -61.4706,-206.0698 11.9201,-12.8252 13.9606,-12.9491 40.6783,-2.4711 15.4707,6.0672 90.5686,53.3456 166.8842,105.063 176.8683,119.8601 225.0642,148.5157 302.7393,179.9983 134.80812,54.6393 219.24276,67.8521 435.72058,68.1843 l 137.186,0.211 -2.6352,-22.1581 c -2.5288,-21.2636 -7.8354,-24.2709 -131.4735,-74.5056 -295.29896,-119.981 -329.95698,-146.6626 -331.34248,-255.083 -0.513,-40.1542 2.7299,-52.7916 18.0122,-70.1916 10.25084,-11.6714 25.00264,-21.1782 32.78176,-21.1262 7.77914,0.052 57.84647,23.9466 111.26076,53.0991 135.37476,73.8851 282.50846,131.3876 420.06286,164.1681 420.4886,100.2062 396.415,92.2168 435.452,144.5134 61.2619,82.0703 105.7213,241.5617 187.0536,671.026 34.4832,182.0837 47.4161,214.7617 84.9956,214.7617 35.5042,0 45.0261,-27.9624 146.2637,-429.5234 68.6355,-272.2438 96.8086,-368.393 120.8614,-412.4772 37.8038,-69.2872 111.6299,-100.7899 376.2897,-160.5682 305.7114,-69.0509 315.7358,-72.3952 507.3614,-169.2567 116.0319,-58.651 122.47,-60.9896 137.5142,-49.9516 30.4846,22.3668 41.5914,49.4146 37.0317,90.1818 -5.8229,52.0616 -23.1012,76.5963 -93.5109,132.7832 -70.7792,56.4815 -129.374,82.9505 -249.0178,112.4876 -48.5644,11.9895 -96.8135,28.1686 -107.2202,35.9536 -24.4105,18.2612 -25.9264,55.9834 -2.6552,66.0806 39.3407,17.0696 237.4602,4.8284 385.7468,-23.8343 188.5925,-36.4534 251.89,-68.478 544.0475,-275.2537 70.1349,-49.6382 119.8567,-71.9042 136.1247,-60.9582 6.8325,4.5972 11.0404,22.7669 11.0404,47.671 0,127.8194 -154.4786,285.303 -389.7252,397.3065 -153.3534,73.0133 -309.4148,118.646 -525.7581,153.7331 -135.8999,22.0407 -143.861,25.8559 -204.851,98.1705 -77.543,91.9411 -179.7671,307.6418 -229.8272,484.9533 -30.927,109.5429 -37.6868,256.5384 -16.5206,359.2465 18.7103,90.7906 60.5345,193.7058 118.4128,291.3742 111.5835,188.2951 245.8996,308.7435 550.287,493.4719 171.3472,103.9885 202.4254,124.6742 195.6103,130.1993 -8.0603,6.5347 -261.0026,2.8833 -452.0978,-6.5265 z"
     id="path19268" />
  <path
     style="fill:#554400;stroke-width:7.57192"
     d="m 3054.3956,4381.7683 c -542.4573,-26.5182 -1157.1079,-28.533 -1841.6642,-6.0372 -175.757,5.7758 -367.29678,9.584 -425.64388,8.4629 l -106.0857,-2.0383 184.7801,-156.8101 c 303.03118,-257.1615 395.48778,-355.0211 506.03598,-535.6088 96.4072,-157.4872 127.4892,-255.1935 136.3783,-428.7057 12.0935,-236.0613 -41.3231,-428.5229 -158.2822,-570.295 -84.7286,-102.7039 -163.1886,-142.882 -385.2607,-197.286 -71.69036,-17.5629 -153.76628,-39.0753 -182.39108,-47.8051 -80.1321,-24.4385 -217.9222,-82.2257 -295.6342,-123.9848 -82.3662,-44.2602 -213.5585,-143.6728 -256.7264,-194.5377 -55.7551,-65.6964 -88.8432,-176.6189 -61.4706,-206.0698 11.9172,-12.822 13.9672,-12.9471 40.6783,-2.4827 15.4707,6.0609 88.6765,51.9212 162.6795,101.9118 174.8981,118.1477 245.398,159.0683 329.7858,191.4191 116.63836,44.7143 176.05214,53.9596 374.50358,58.2749 l 174.4956,3.7944 v -17.5238 c 0,-25.6234 -15.4797,-34.9518 -137.6154,-82.932 -117.82143,-46.2854 -240.1733,-103.7901 -273.33178,-128.4645 -53.9098,-40.1164 -74.12,-150.8947 -35.5423,-194.8183 10.31469,-11.744 24.82906,-21.3528 32.2541,-21.3528 7.42503,0 59.70647,24.538 116.1809,54.5289 154.21378,81.8957 298.80558,135.4614 478.85708,177.3979 219.4003,51.1015 308.2775,74.8604 332.8783,88.9861 11.9513,6.8623 33.3307,30.272 47.51,52.0213 56.0105,85.9141 93.8568,219.3479 162.6676,573.5142 53.7704,276.754 61.9125,301.2144 100.2652,301.2144 36.1645,0 40.8837,-13.847 147.5471,-432.9323 78.7208,-309.2971 102.8947,-386.6012 134.7113,-430.782 39.8981,-55.4033 101.676,-78.9108 372.3382,-141.6812 310.4619,-72.0007 303.3452,-69.513 543.581,-190.0209 71.7724,-36.0029 76.3001,-37.3092 91.2622,-26.3314 42.0383,30.8437 51.3373,91.5893 22.0364,143.9502 -22.4825,40.1766 -126.0727,121.4784 -188.8177,148.1924 -27.7511,11.815 -88.7453,30.9967 -135.5425,42.6263 -103.0338,25.6045 -129.3545,40.3573 -129.3545,72.5032 0,35.3564 18.3125,39.8815 142.538,35.2229 172.8216,-6.4809 373.3346,-45.2912 470.3196,-91.0325 56.0306,-26.4259 148.6567,-84.7712 278.5415,-175.4534 121.9282,-85.1271 172.1966,-111.1057 190.7859,-98.5978 16.5392,11.1285 13.6537,81.8854 -5.1042,125.1538 -26.6538,61.4823 -75.4224,119.1765 -155.8135,184.3303 -170.3714,138.0793 -424.7264,239.2569 -717.797,285.5254 -61.5358,9.7152 -124.6142,21.9762 -140.1738,27.2472 -79.8592,27.0519 -181.0685,184.2643 -274.5715,426.5026 -59.3465,153.7496 -69.6352,205.4021 -69.9636,351.2457 -0.2726,120.6721 1.3458,134.672 23.6353,204.5349 63.4596,198.9045 173.5959,362.2829 336.8902,499.7489 102.3839,86.1899 182.9328,141.5825 373.1876,256.6369 79.5271,48.0931 144.5947,90.0991 144.5947,93.3467 0,8.2359 -263.8157,5.6211 -475.1326,-4.7092 z"
     id="path19270" />
  <path
     style="fill:#554400;stroke-width:7.57192"
     d="m 2966.0967,4374.6315 c -287.4472,-13.6082 -1115.2173,-19.3937 -1442.2166,-10.0797 -152.6311,4.3473 -402.3105,9.8056 -554.84328,12.1297 l -277.3323,4.2256 67.0967,-58.3306 c 36.9031,-32.0816 121.12218,-105.0086 187.15351,-162.0598 230.10057,-198.8075 322.85977,-299.6902 422.66377,-459.6786 103.2691,-165.5431 132.6899,-260.2671 139.9397,-450.5539 9.5716,-251.2248 -36.8699,-415.5697 -159.4034,-564.0882 -84.4625,-102.3739 -152.0381,-135.6867 -412.92518,-203.559 -233.1333,-60.6521 -383.6048,-120.9295 -513.9843,-205.8973 -177.3468,-115.5762 -262.6949,-223.7766 -254.8627,-323.1031 2.1224,-26.914 5.6269,-33.0707 19.7582,-34.7106 11.7208,-1.3602 73.8674,34.8245 195.6143,113.8959 326.456,212.0243 390.0511,232.8418 739.57488,242.0963 l 128.2438,3.3955 v -23.5059 c 0,-27.8906 -13.287,-35.7876 -160.527,-95.4058 -131.13394,-53.0969 -229.3884,-101.8422 -254.97791,-126.4979 -25.17327,-24.2546 -47.01887,-79.2563 -47.00047,-118.3354 0.016,-33.3387 23.6252,-74.5465 44.52149,-77.7076 8.30587,-1.2565 58.12173,19.4875 110.70189,46.0979 196.6924,99.5442 291.2652,133.1062 558.0979,198.0573 244.8301,59.5953 257.7484,64.0091 286.1504,97.7708 62.5834,74.3931 99.2645,191.4336 174.5028,556.7963 30.5089,148.154 61.7148,284.7109 69.3463,303.46 12.3778,30.41 16.7407,34.3147 40.4242,36.1784 42.3424,3.332 43.7245,-0.5506 158.5362,-445.2481 73.368,-284.175 96.3305,-358.0903 125.9817,-405.5299 39.2123,-62.7362 88.3638,-81.611 418.5153,-160.7168 233.4616,-55.9383 278.7718,-71.3813 440.8199,-150.2443 141.9536,-69.0837 141.8208,-69.0618 168.1472,-27.7873 8.9429,14.0204 11.9324,33.3376 9.6525,62.3671 -2.821,35.9198 -8.0739,47.3248 -36.005,78.173 -39.0712,43.152 -126.5195,103.1566 -180.0872,123.5707 -21.2399,8.0944 -76.5202,25.3662 -122.8453,38.3817 -96.8494,27.211 -122.0697,42.4951 -122.0697,73.9767 0,36.5945 11.7225,39.4444 145.2128,35.3035 160.6399,-4.9833 352.7555,-38.9841 451.8447,-79.9682 44.2977,-18.3219 147.4303,-81.7111 281.7274,-173.1603 125.9681,-85.7775 182.8828,-117.1695 198.3663,-109.4113 6.4914,3.2525 8.4747,22.982 6.05,60.1843 -3.114,47.7802 -7.9787,62.0841 -35.59,104.6431 -79.7583,122.9361 -246.5002,239.4337 -461.6972,322.5734 -112.3575,43.4086 -210.3364,69.4225 -383.9754,101.9472 -78.4041,14.686 -152.1251,31.7868 -163.8243,38.0017 -71.1649,37.8038 -178.5069,219.1283 -260.9068,440.7291 -54.3469,146.1569 -58.9797,173.0346 -58.5056,339.4297 l 0.4189,146.5834 30.4181,82.0929 c 100.2447,270.5427 260.3765,448.827 587.3052,653.8815 71.4343,44.8045 157.804,99.262 191.9332,121.0165 l 62.0525,39.5535 -183.9894,-0.9866 c -101.1944,-0.5425 -269.1352,-5.0186 -373.2017,-9.9455 z"
     id="path19272" />
  <path
     style="fill:#d4aa00;stroke-width:7.57192"
     d="m 2649.2911,1894.2576 c 16.7489,-35.3862 39.7286,-154.1087 37.5538,-194.0182 -2.1935,-40.2592 -4.4365,-45.4433 -20.4599,-47.2956 -19.6819,-2.2752 -75.0475,39.1205 -189.7147,141.8458 l -64.6887,57.9516 -0.3544,-64.7694 c -0.3965,-72.3618 11.0575,-115.2558 45.411,-170.0799 66.4583,-106.0589 258.5382,-193.9476 398.3105,-182.2521 53.3684,4.4656 104.063,28.9095 123.6535,59.6233 17.79,27.891 17.7023,146.0187 -0.1487,194.7344 -35.8282,97.7986 -62.2823,121.6441 -191.7384,172.8309 -99.4444,39.3203 -146.66,50.0868 -137.8289,31.4292 z"
     id="path19274" />
  <path
     style="fill:#d4aa00;stroke-width:7.57192"
     d="m 1734.0596,1590.9508 c -164.6023,-52.3734 -234.7336,-98.9909 -298.4925,-198.4131 -35.5302,-55.4038 -37.3116,-60.9944 -40.5219,-127.168 -2.0648,-42.5628 0.487,-78.662 6.627,-93.7452 l 9.985,-24.5286 h 61.9844 c 123.7811,0 263.9132,53.3484 336.1596,127.9762 55.8215,57.6614 164.6947,235.0645 151.0496,246.1271 -1.7635,1.4297 -41.5305,-26.7114 -88.3714,-62.5356 -86.3705,-66.0568 -133.1253,-90.976 -156.8472,-83.596 -19.073,5.9339 -11.3084,33.594 39.1341,139.4084 23.8419,50.0137 42.1686,91.891 40.726,93.0606 -1.4427,1.1697 -29.0873,-6.294 -61.4327,-16.5858 z"
     id="path19414" />
  <path
     style="fill:#d4aa00;stroke-width:7.57192"
     d="m 1072.8473,1670.8989 c -125.12196,-50.5832 -209.67371,-139.6168 -215.46746,-226.8888 -3.46058,-52.1275 9.27785,-73.1051 48.49265,-79.8573 38.07004,-6.555 126.41641,4.7451 178.14301,22.7857 47.2441,16.4773 115.4131,73.3104 145.3144,121.1498 16.1039,25.7649 41.4354,102.62 33.8236,102.62 -1.0687,0 -26.7632,-13.4937 -57.0988,-29.9859 -88.1844,-47.9421 -140.5132,-56.5351 -140.4667,-23.0663 0.021,14.9566 43.5114,79.4138 76.5759,113.4929 17.1648,17.6914 20.3195,28.191 8.4705,28.191 -4.0896,0 -39.0938,-12.7985 -77.7871,-28.4411 z"
     id="path19416" />
  <path
     style="fill:#d4aa00;stroke-width:7.57192"
     d="m 2413.6328,1389.1288 c 2.1464,-18.749 10.5385,-70.2945 18.6469,-114.5455 15.2838,-83.4104 11.0897,-113.8518 -15.6861,-113.8518 -28.0064,0 -94.058,60.4331 -158.422,144.9462 -35.3257,46.3843 -38.9389,44.8694 -70.0915,-29.3879 -29.3859,-70.0463 -48.7258,-159.4499 -42.1652,-194.9194 13.8035,-74.6268 125.2845,-199.02558 208.5843,-232.75378 96.5686,-39.1008 153.43,-3.4106 207.7271,130.38398 16.9067,41.6603 18.5021,56.2877 14.8706,136.3566 -5.6879,125.4194 -38.6259,192.974 -136.8083,280.5894 l -30.5604,27.2713 z"
     id="path19418" />
  <path
     style="fill:#d4aa00;stroke-width:7.57192"
     d="m 2999.4447,1108.37 c 84.3499,-72.2588 120.746,-115.98027 116.5434,-139.99995 -5.844,-33.40059 -53.3922,-21.33798 -220.4342,55.92245 l -49.5193,22.9037 3.9797,-54.02204 c 2.9739,-40.3688 9.9456,-64.18159 27.585,-94.22038 62.7041,-106.78026 251.2083,-195.01676 416.6245,-195.01676 74.2047,0 82.4003,6.0289 89.092,65.5396 11.0354,98.1379 -38.3456,201.61142 -127.7398,267.66718 -60.9568,45.0428 -278.1164,137.2234 -323.2717,137.2234 -5.4449,0 24.768,-29.6987 67.1404,-65.9972 z"
     id="path19420" />
  <path
     style="fill:#d4aa00;stroke-width:7.57192"
     d="m 2413.4777,678.37012 c -56.7781,-59.8898 -103.1068,-146.4898 -124.786,-233.2562 -17.7273,-70.9499 -8.3494,-125.0015 32.5611,-187.6719 50.909,-77.987 182.971,-167.2213 247.219,-167.0456 61.3305,0.1675 173.5399,80.8313 220.664,158.6282 55.8521,92.2058 53.8334,156.3619 -8.2647,262.6644 -33.3629,57.1118 -121.7892,143.9115 -135.2469,132.7587 -3.5041,-2.904 -19.7949,-48.6051 -36.2017,-101.5579 -43.9916,-141.9828 -67.3763,-179.8443 -111.0786,-179.8443 -15.9496,0 -24.2113,6.0112 -35.1395,25.5669 -12.006,21.4844 -14.2874,48.701 -14.2874,170.4467 0,79.6838 -2.5201,144.8793 -5.6004,144.8788 -3.0803,-5e-4 -16.5077,-11.506 -29.8389,-25.5678 z"
     id="path19422" />
  <path
     style="fill:#d4aa00;stroke-width:7.57192"
     d="m 1746.7299,794.99602 c -114.2789,-61.9704 -219.355,-143.9429 -272.5084,-212.5905 -50.4625,-65.1724 -72.5768,-217.1087 -42.1406,-289.5278 15.7511,-37.4779 58.4639,-70.5161 99.1693,-76.7072 39.4416,-5.9989 112.5889,7.3986 172.1594,31.5324 64.3923,26.0872 168.3621,113.3284 226.7862,190.2965 l 43.5886,57.4237 v 83.4679 c 0,79.8001 -10.8845,148.5391 -24.6095,155.4162 -3.5362,1.7719 -37.0657,-29.9797 -74.51,-70.5589 -68.7928,-74.5524 -109.8275,-101.3734 -140.4975,-91.8316 -17.994,5.598 -13.9746,24.3913 30.3393,141.8558 18.309,48.5324 32.206,92.305 30.8821,97.2726 -1.643,6.165 -17.0887,1.0704 -48.6589,-16.0491 z"
     id="path19424" />
  <path
     style="fill:#d4aa00;stroke-width:7.57192"
     d="m 1054.7606,928.29752 c -77.86964,-14.86465 -186.75241,-91.8549 -225.70025,-159.5911 -42.12403,-73.2601 -40.69643,-166.4897 3.05,-199.1788 28.67572,-21.4277 96.57871,-37.5126 157.77122,-37.3731 117.08123,0.2671 209.90353,51.4229 264.91913,146.0011 36.5405,62.8173 46.1465,105.4329 25.2324,111.9395 -27.3602,8.512 -115.2684,-10.082 -164.7635,-34.8501 -83.4926,-41.781 -112.2878,-28.648 -74.8095,34.1192 17.2752,28.9316 111.4994,109.31564 156.0408,133.12048 l 24.6399,13.16864 -67.2754,-0.64 c -37.0015,-0.35184 -81.5986,-3.37412 -99.1048,-6.7159 z"
     id="path19426" />
  <path
     style="fill:#6c5d53;stroke-width:7.57192"
     d="m 2957.6872,4374.771 c -296.4339,-13.6788 -1086.5695,-19.3883 -1416.9882,-10.2391 -157.2563,4.3543 -412.6926,9.7787 -567.63626,12.0542 l -281.71582,4.1369 45.8419,-40.1905 c 25.2131,-22.105 81.97669,-70.9076 126.14141,-108.4504 281.09377,-238.9477 393.63097,-356.371 495.61787,-517.1364 117.2467,-184.8201 152.5291,-305.5237 152.1537,-520.5279 -0.4424,-253.2806 -81.8587,-455.6061 -232.4743,-577.7159 -62.2454,-50.4646 -136.3503,-78.9271 -363.12152,-139.469 -279.72266,-74.6786 -427.89616,-142.84 -586.86686,-269.9646 -94.1828,-75.3156 -117.1452,-102.3038 -147.0995,-172.8895 -19.9177,-46.935 -21.3207,-108.7552 -2.6003,-114.5792 19.6937,-6.1269 35.2231,2.5061 218.0777,121.2323 225.4517,146.3845 315.4629,189.7208 444.418,213.9672 50.21586,9.4417 82.3566,11.5325 314.53268,20.4605 l 94.6061,3.638 v -20.309 c 0,-28.5045 -18.7057,-40.1998 -154.4793,-96.5857 -132.77358,-55.1398 -218.34495,-95.7328 -247.88918,-117.5928 -51.6321,-38.2027 -76.0695,-134.6962 -45.9966,-181.6221 8.4038,-13.1133 21.84782,-24.8349 29.87558,-26.048 8.02778,-1.2131 72.35989,26.1854 142.96024,60.8855 196.05296,96.3602 239.51206,110.736 637.13456,210.7577 140.8476,35.4303 154.6055,41.178 181.626,75.8802 56.9135,73.0932 94.1353,193.1951 162.8908,525.5918 72.9998,352.9151 77.2174,366.4864 113.8989,366.4864 41.0579,0 51.0454,-27.4725 151.1952,-415.8876 101.1426,-392.2655 114.8321,-430.8813 168.0439,-474.022 44.287,-35.9051 103.991,-55.0171 385.7959,-123.4979 239.0826,-58.0989 280.3835,-72.3088 450.7619,-155.0865 l 121.5393,-59.0496 21.0081,17.0321 c 16.9657,13.7547 21.6674,25.4247 24.4336,60.6462 4.4504,56.6627 -10.8691,82.8875 -82.2913,140.872 -76.1162,61.7952 -108.7033,77.8734 -227.5068,112.2501 -125.0806,36.1931 -146.0008,47.4642 -149.4882,80.5394 -3.9535,37.4978 13.1612,41.7043 149.2963,36.6926 127.0674,-4.6777 234.2379,-20.2692 353.875,-51.4827 108.4366,-28.2913 156.8734,-54.9958 407.6239,-224.7339 94.343,-63.8627 150.3762,-93.077 164.7286,-85.8855 6.5142,3.264 8.4281,22.8507 5.8805,60.1843 -3.0307,44.4197 -8.8579,63.4302 -29.517,96.2979 -57.9298,92.1638 -156.4577,176.5401 -292.0646,250.1158 -154.0367,83.575 -309.1707,135.5046 -527.7931,176.6738 -179.5133,33.8044 -200.0577,40.7015 -238.1009,79.9343 -51.5936,53.2071 -134.0168,199.9764 -192.0898,342.0505 -78.1362,191.1583 -84.3545,220.1525 -84.805,395.4342 -0.3718,144.8294 -0.05,147.4804 26.3383,221.5793 82.4321,231.4067 204.7199,389.1658 435.3397,561.6163 36.9812,27.6537 139.037,95.1501 226.7901,149.9924 87.7532,54.842 165.4427,103.4505 172.6432,108.0185 17.5568,11.1379 -293.6358,9.9849 -554.5444,-2.0546 z"
     id="path19428" />
</svg>
