<svg width="1597" height="1596" viewBox="0 0 1597 1596" fill="none" xmlns="http://www.w3.org/2000/svg">
<path d="M1217.44 868.755L1180.44 862.422M1220.3 849.142L1183.02 844.647M1222.24 829.401L1184.78 826.796M1223.24 809.865L1185.7 808.639M1223.32 790.047L1185.78 790.686M1222.5 770.255L1185.04 772.758M1220.74 750.54L1183.43 754.881M1218.05 730.927L1181 737.056M1214.48 711.671L1177.68 719.154M1209.98 692.39L1173.59 701.635M1204.56 673.339L1168.66 684.32M1198.28 654.568L1162.93 667.261M1191.12 636.13L1156.42 650.482M1183.1 618.049L1149.11 634.036M1174.25 600.351L1141.09 617.921M1164.62 583.087L1132.29 602.215M1154.17 566.309L1122.79 586.918M1142.95 550.016L1112.57 572.081M1130.99 534.259L1101.71 557.728M1118.34 519.064L1090.18 543.912M1105.13 504.66L1077.89 530.479M1091.13 490.717L1065.14 517.812M1076.46 477.437L1051.8 505.733M1061.2 464.847L1037.92 494.292M1045.36 452.997L1023.51 483.515M1028.98 441.888L1008.64 473.427M1012.09 431.545L993.308 464.055M994.713 422.019L977.541 455.397M976.902 413.311L961.416 447.506M958.938 405.547L944.704 440.279M940.385 398.55L927.915 433.946M921.552 392.421L910.845 428.404M902.642 387.237L893.29 423.577M883.298 382.87L875.785 419.644M863.775 379.396L858.128 416.503M844.328 376.843L840.112 414.128M824.575 375.183L822.224 412.647M804.746 374.442L804.286 411.983M784.916 374.646L786.347 412.162M765.367 375.77L768.204 413.183M745.665 377.788L750.341 415.022M726.065 380.75L732.581 417.703M706.644 384.606L714.949 421.202M687.402 389.382L697.496 425.544M668.646 395L680.043 430.753M649.966 401.538L663.075 436.704M631.593 408.944L646.388 443.446M613.603 417.218L630.034 450.954M596.022 426.284L614.063 459.203M578.901 436.167L598.475 468.192M562.239 446.842L583.321 477.896M546.089 458.283L568.628 488.29M530.655 470.286L554.267 499.476M515.629 483.157L540.595 511.172M501.217 496.692L527.512 523.482M487.443 510.892L514.99 536.404M474.334 525.755L503.082 549.888M461.941 541.18L491.839 563.908M450.288 557.192L481.259 578.439M439.53 573.562L471.268 593.635M429.436 590.596L462.119 609.085M420.134 608.089L453.687 624.944M411.651 626.017L446.02 641.161M404.061 644.302L439.146 657.735M397.391 662.74L432.937 674.82M391.514 681.664L427.622 691.956M386.506 700.869L423.099 709.296M382.442 720.022L419.317 727.071M379.223 739.584L416.429 744.743M376.923 759.274L414.334 762.568M375.568 778.836L413.082 780.7M375.109 798.654H412.673M375.594 818.471L413.107 816.581M376.974 838.008L414.385 834.713M379.299 857.672L416.506 852.539M382.545 877.208L419.444 870.237M386.71 896.566L423.226 887.807M391.77 915.72L427.801 905.198M397.698 934.592L433.192 922.334M404.521 953.184L439.376 939.215M412.11 971.188L446.455 955.993M420.646 989.065L454.198 972.235M429.973 1006.51L462.682 988.094M440.092 1023.49L471.907 1003.54M451.003 1039.99L481.821 1018.54M462.656 1055.95L492.426 1033.07M475.05 1071.37L503.67 1047.09M488.133 1086.21L515.578 1060.6M501.753 1100.26L528.253 1073.67M516.191 1113.82L541.362 1085.98M531.217 1126.69L555.033 1097.65M546.856 1138.85L569.216 1108.71M563.032 1150.29L583.884 1119.08M579.718 1160.94L599.037 1128.73M596.737 1170.67L614.829 1137.77M614.369 1179.68L630.8 1145.94M632.41 1187.9L647.155 1153.38M650.835 1195.26L663.816 1160.04M669.361 1201.67L681.014 1165.99M688.399 1207.29L698.212 1171.07M707.666 1212.04L715.639 1175.36M726.909 1215.82L733.476 1178.86M746.534 1218.75L751.236 1181.52M766.261 1220.77L769.072 1183.36M785.836 1221.87L787.241 1184.35M805.665 1222.05L805.18 1184.51M825.495 1221.28L823.144 1183.82M845.248 1219.6L841.032 1182.31M864.669 1217.04L859.073 1179.94M884.167 1213.52L876.756 1176.72M903.486 1209.07L894.286 1172.68M922.574 1203.74L911.612 1167.86M941.382 1197.53L928.682 1162.21M959.858 1190.46L945.471 1155.78M977.975 1182.52L961.953 1148.58M995.531 1173.86L978.282 1140.51M1012.83 1164.28L994.023 1131.8M1029.7 1153.91L1009.36 1122.37M1046.05 1142.8L1024.23 1112.26M1061.87 1130.93L1038.61 1101.46M1077.12 1118.31L1052.49 1089.99M1091.79 1105.03L1065.83 1077.91M1105.82 1091.06L1078.58 1065.22M1119.03 1076.63L1090.87 1051.79M1131.71 1061.41L1102.37 1037.97M1143.64 1045.63L1113.21 1023.64M1154.83 1029.29L1123.35 1008.81M1165.26 1012.43L1132.81 993.534M1174.87 995.117L1141.52 977.854M1183.56 977.573L1149.59 961.56M1191.5 959.415L1156.78 945.114M1198.58 940.9L1163.19 928.361M1204.82 922.079L1168.84 911.353M1210.08 903.206L1173.72 893.859M1214.55 883.899L1177.76 876.391M1267.35 852.028L1225.9 847.15M1269.37 830.091L1227.74 827.282M1270.39 808.103L1228.68 807.387M1270.39 786.344L1228.66 787.187M1269.34 764.382L1227.71 767.267M1267.27 742.47L1225.85 747.424M1264.18 720.686L1223.04 727.658M1260.04 699.081L1219.28 708.045M1254.95 677.935L1214.55 688.381M1248.82 656.816L1208.98 669.201M1241.72 636.028L1202.52 650.303M1233.64 615.572L1195.16 631.712M1224.62 595.524L1186.95 613.478M1214.68 575.937L1177.91 595.652M1203.85 556.834L1168.04 578.261M1192.14 538.243L1157.39 561.355M1179.57 520.238L1145.94 544.934M1166.18 502.796L1133.78 529.049M1152.02 486.017L1120.87 513.777M1137.07 469.903L1107.28 499.093M1121.59 454.657L1092.87 484.894M1105.23 439.998L1077.97 471.563M1088.19 426.105L1062.46 458.947M1070.51 413.03L1046.38 447.047M1052.23 400.772L1029.77 435.912M1033.4 389.407L1012.68 425.595M1014.06 378.911L995.096 416.069M994.227 369.36L977.132 407.386M973.963 360.728L958.759 399.571M953.546 353.169L939.798 392.548M932.566 346.478L920.786 386.47M911.305 340.757L901.518 381.312M890.019 336.109L881.765 376.996M868.298 332.406L862.114 373.65M846.424 329.674L842.31 371.173M824.703 327.963L822.173 369.59M802.65 327.273L802.241 368.977M780.623 327.605L782.309 369.283M758.621 328.959L762.377 370.484M736.977 331.308L742.292 372.68M715.205 334.73L722.564 375.796M693.637 339.174L703.016 379.805M672.3 344.614L683.646 384.734M651.244 351.024L664.532 390.557M630.749 358.353L645.494 397.375M610.408 366.704L627.018 404.96M590.476 376L608.901 413.413M571.004 386.215L591.192 422.709M552.018 397.324L573.943 432.796M533.594 409.276L557.18 443.676M515.731 422.07L540.928 455.321M498.483 435.708L525.237 467.707M482.051 449.958L509.931 480.961M466.106 465.102L495.442 494.752M450.901 480.987L481.643 509.206M436.463 497.561L468.508 524.273M422.792 514.799L456.089 539.928M409.938 532.675L444.436 556.145M397.954 551.114L433.55 572.872M386.965 569.884L423.329 590.315M376.744 589.37L414.078 607.987M367.442 609.315L405.645 626.068M359.086 629.694L398.107 644.506M351.727 650.431L391.412 663.277M345.389 671.244L385.534 682.583M339.972 692.594L380.654 701.89M335.551 714.174L376.642 721.401M332.152 735.677L373.499 741.346M329.725 757.588L371.301 761.164M328.319 779.577L370.023 781.058M327.936 801.361L369.666 801.258M328.575 823.374L370.253 821.178M330.261 845.337L371.761 841.047M332.919 866.917L374.24 861.094M336.65 888.624L377.638 880.758M341.403 910.127L381.931 900.244M347.127 931.349L387.144 919.499M353.873 952.29L393.252 938.525M361.565 972.899L400.228 957.219M370.202 993.1L408.073 975.581M379.683 1012.66L416.889 993.789M390.16 1031.97L426.421 1011.33M401.531 1050.76L436.77 1028.42M413.772 1069.02L447.911 1045.04M426.855 1086.7L459.794 1061.11M440.731 1103.76L472.418 1076.63M455.373 1120.15L485.731 1091.55M470.757 1135.86L499.709 1105.82M486.677 1150.64L514.53 1119.59M503.466 1164.84L529.786 1132.49M520.893 1178.25L545.629 1144.67M538.96 1190.84L562.009 1156.08M557.563 1202.56L578.901 1166.73M576.728 1213.42L596.277 1176.56M596.149 1223.22L614.318 1185.68M616.26 1232.24L632.538 1193.83M636.755 1240.28L651.09 1201.13M657.606 1247.38L669.949 1207.54M678.51 1253.41L689.37 1213.14M699.975 1258.52L708.765 1217.76M721.619 1262.65L728.34 1221.49M743.186 1265.74L748.323 1224.37M765.112 1267.86L768.152 1226.26M787.113 1268.96L788.059 1227.28M808.885 1269.06L808.246 1227.36M830.887 1268.12L828.153 1226.52M852.812 1266.15L848.008 1224.73M874.635 1263.14L867.787 1222M896.024 1259.15L887.668 1218.29M917.464 1254.1L907.089 1213.7M938.648 1248.07L926.305 1208.23M959.5 1241.05L945.241 1201.85M979.994 1233.05L963.844 1194.59M1000.08 1224.12L982.115 1186.47M1019.76 1214.26L1000 1177.54M1038.72 1203.63L1017.66 1167.65M1057.4 1192.02L1034.63 1157.05M1075.49 1179.53L1051.08 1145.71M1092.99 1166.25L1067 1133.64M1109.86 1152.15L1082.34 1120.82M1126.06 1137.29L1097.08 1107.28M1141.55 1121.68L1111.16 1093.11M1156.29 1105.39L1124.55 1078.32M1170.09 1088.61L1137.41 1062.69M1183.27 1070.99L1149.36 1046.68M1195.59 1052.78L1160.53 1030.16M1207.04 1034.01L1170.93 1013.12M1217.62 1014.7L1180.52 995.628M1227.28 994.938L1189.28 977.726M1235.89 974.968L1197.28 959.185M1243.66 954.359L1204.31 940.517M1250.46 933.417L1210.46 921.568M1256.28 912.17L1215.73 902.363M1261.04 890.922L1220.12 882.648M1264.84 869.215L1223.57 863.035M1321.83 826.235L1275.55 823.63M1322.59 801.769L1276.24 801.488M1322.24 777.304L1275.91 779.321M1320.73 753.17L1274.53 756.924M1318.07 728.858L1272.1 734.885M1314.29 704.699L1268.68 712.999M1309.38 680.745L1264.23 691.266M1303.35 657.071L1258.76 669.789M1296.27 633.985L1252.17 648.311M1288.05 610.975L1244.71 627.396M1278.77 588.374L1236.25 606.863M1268.42 566.232L1226.84 586.739M1257.05 544.627L1216.49 567.075M1244.68 523.558L1205.25 547.922M1231.37 503.102L1193.11 529.304M1217.11 483.285L1180.13 511.249M1201.95 464.157L1166.36 493.832M1185.93 445.744L1151.77 477.054M1169.07 428.072L1136.41 460.965M1151.41 411.217L1120.36 445.616M1133.21 395.358L1103.39 430.83M1114.05 380.188L1085.97 417.039M1094.22 365.938L1067.92 404.092M1073.75 352.633L1049.3 392.012M1052.64 340.298L1030.11 380.801M1030.97 328.959L1010.43 370.509M1008.79 318.642L990.318 361.137M986.178 309.397L969.798 352.735M963.128 301.199L948.895 345.303M939.977 294.202L927.379 338.791M916.237 288.2L905.888 333.351M892.268 283.297L884.167 328.933M868.349 279.568L861.986 325.46M844.022 276.912L839.959 323.06M819.592 275.355L817.855 321.655M795.393 274.946V321.272M770.912 275.661L773.289 321.936M746.508 277.525L751.185 323.621M722.181 280.513L729.183 326.328M698.339 284.599L707.053 330.108M674.446 289.86L685.409 334.884M650.835 296.219L663.995 340.655M627.555 303.702L642.862 347.448M604.633 312.257L622.061 355.186M582.401 321.757L601.388 364.023M560.4 332.406L581.405 373.701M538.909 344.052L561.882 384.3M518.006 356.693L542.895 395.792M497.716 370.279L524.445 408.152M478.091 384.81L506.583 421.355M459.13 400.21L489.334 435.376M440.91 416.503L472.75 450.188M423.661 433.409L456.702 465.919M407.025 451.311L441.574 482.212M391.233 469.954L427.238 499.144M376.335 489.312L413.695 516.74M362.357 509.334L400.995 534.923M349.325 529.994L389.163 553.693M337.263 551.267L378.226 573M326.352 572.821L368.081 593.022M316.335 595.141L359.01 613.273M307.391 617.921L350.909 633.908M299.52 641.084L343.779 654.875M292.723 664.605L337.621 676.173M287.101 688.125L332.408 697.983M282.552 712.182L328.294 719.741M279.103 736.417L325.176 741.653M276.828 760.5L323.055 763.998M275.627 784.965L321.982 786.114M275.551 809.456L321.905 808.256M276.624 833.615L322.902 830.678M278.847 858.004L324.895 852.743M282.169 882.239L327.911 874.68M286.59 906.015L332.025 896.745M292.212 929.817L337.135 918.299M298.932 953.312L343.217 939.623M306.726 976.5L350.296 960.641M315.619 999.254L358.371 981.301M325.56 1021.57L367.391 1001.58M336.522 1043.41L377.332 1021.42M348.354 1064.45L388.345 1041.01M361.309 1085.16L400.126 1059.83M375.185 1105.26L412.749 1078.12M389.981 1124.7L426.216 1095.79M405.671 1143.42L440.475 1112.8M422.204 1161.37L455.501 1129.14M439.555 1178.56L471.268 1144.77M457.673 1194.93L487.75 1159.66M476.353 1210.25L505.127 1173.93M495.927 1224.86L522.938 1187.19M516.191 1238.55L541.336 1199.63M537.069 1251.29L560.297 1211.19M558.534 1263.04L579.769 1221.84M580.51 1273.76L599.701 1231.57M602.717 1283.34L620.323 1240.46M625.639 1291.95L641.099 1248.25M648.944 1299.48L662.181 1255.07M672.555 1305.91L683.544 1260.89M696.167 1311.18L705.469 1265.77M720.29 1315.39L727.292 1269.57M744.617 1318.48L749.268 1272.38M768.74 1320.45L771.653 1274.2M793.246 1321.29L793.809 1274.96M817.752 1321.03L815.964 1274.73M841.901 1319.65L838.374 1273.46M866.254 1317.1L860.402 1271.13M890.453 1313.42L882.327 1267.81M914.448 1308.62L904.048 1263.47M937.907 1302.77L925.845 1258.03M961.34 1295.72L947.081 1251.62M984.389 1287.58L968.009 1244.24M1007.06 1278.38L988.58 1235.89M1029.24 1268.14L1008.72 1226.59M1050.91 1256.88L1028.42 1216.35M1072.04 1244.62L1047.63 1205.22M1092.35 1231.55L1066.54 1193.06M1112.26 1217.4L1084.64 1180.19M1131.48 1202.36L1102.12 1166.5M1149.98 1186.42L1118.93 1152M1167.71 1169.64L1135.08 1136.75M1184.68 1152.07L1150.49 1120.76M1200.78 1133.71L1165.13 1104.09M1216.03 1114.64L1179.01 1086.75M1230.22 1095.07L1192.19 1068.54M1243.61 1074.64L1204.36 1049.97M1256.05 1053.6L1215.65 1030.87M1267.5 1031.99L1226.03 1011.28M1277.93 1009.88L1235.48 991.236M1287.3 987.303L1243.99 970.78M1295.51 964.574L1251.61 949.685M1302.71 941.207L1258.12 928.514M1308.82 917.507L1263.64 907.062M1313.83 893.527L1268.19 885.381M1317.66 869.649L1271.74 863.239M1320.42 845.311L1274.25 841.225M1380.53 814.053L1329.03 812.495M1380.65 786.855L1329.14 787.877M1379.5 759.683L1328.11 763.283M1377.13 732.919L1325.92 738.435M1373.47 706.002L1322.59 714.046M1368.57 679.289L1318.15 689.836M1362.41 652.832L1312.55 665.83M1355 626.706L1305.83 642.131M1346.46 601.27L1297.91 618.457M1336.65 575.962L1288.97 595.473M1325.66 551.139L1278.97 572.923M1313.52 526.853L1267.93 550.833M1300.26 503.153L1255.87 529.279M1285.92 480.118L1242.82 508.312M1270.54 457.772L1228.84 487.984M1254.16 436.167L1213.91 468.32M1236.76 415.354L1198.07 449.345M1218.44 395.358L1181.41 431.136M1199.19 376.23L1163.88 413.719M1179.08 358.021L1145.58 397.145M1158.39 340.962L1126.29 381.235M1136.66 324.694L1106.54 366.449M1114.23 309.448L1086.12 352.581M1091.08 295.249L1065.06 339.685M1067.29 282.148L1043.44 327.784M1042.91 270.17L1021.31 316.905M1017.99 259.368L998.699 307.098M992.592 249.74L975.65 298.364M966.731 241.312L952.217 290.703M940.82 234.187L928.145 284.089M914.295 228.211L904.099 278.675M887.489 223.487L879.823 274.384M860.836 220.014L855.087 271.192M833.724 217.792L830.555 269.174M806.534 216.796L805.947 268.281M779.626 217.026L781.006 268.485M752.462 218.533L756.449 269.864M725.401 221.316L731.943 272.392M698.493 225.351L707.59 276.019M672.121 230.587L683.109 280.871M645.724 237.099L659.191 286.796M619.659 244.862L635.579 293.819M594.028 253.826L612.325 301.965M568.832 263.99L589.454 311.159M544.428 275.176L566.737 321.578M520.28 287.638L544.812 332.917M496.745 301.225L523.423 345.252M473.874 315.858L502.648 358.557M451.719 331.538L482.486 372.833M430.305 348.24L463.014 388.003M409.708 365.912L444.283 404.092M389.955 384.53L426.318 420.998M371.301 403.811L408.942 438.951M353.337 424.165L392.613 457.466M336.343 445.335L377.178 476.722M320.372 467.273L362.664 496.667M305.423 489.95L349.095 517.276M291.547 513.292L336.497 538.447M278.77 537.247L324.895 560.18M267.271 561.508L314.214 582.73M256.82 586.586L304.733 605.459M247.518 612.124L296.326 628.622M239.443 638.096L289.018 652.117M232.595 664.4L282.808 675.943M227.049 690.704L277.646 700.332M222.68 717.545L273.711 724.619M219.562 744.564L270.874 749.033M217.697 771.379L269.162 773.907M217.083 798.577L268.6 798.5M217.722 825.775L269.162 823.093M219.588 852.564L270.9 847.942M222.756 879.558L273.762 872.382M227.177 906.398L277.774 896.668M232.799 932.677L282.987 921.057M239.724 958.955L289.273 944.884M247.85 984.902L296.658 968.405M257.203 1010.41L305.142 991.542M267.731 1035.44L314.699 1014.27M279.435 1059.96L325.304 1036.54M292.263 1083.89L336.957 1058.27M306.036 1106.92L349.759 1079.72M321.011 1129.55L363.405 1100.28M337.033 1151.46L377.971 1120.2M354.052 1172.61L393.456 1139.43M372.042 1192.93L409.811 1157.92M390.926 1212.42L426.983 1175.65M410.705 1231.01L444.973 1192.55M431.353 1248.66L463.729 1208.61M452.537 1265.13L483.457 1223.94M474.717 1280.79L503.619 1238.16M497.614 1295.42L524.394 1251.44M521.149 1308.95L545.783 1263.73M545.323 1321.37L567.708 1274.99M570.059 1332.63L590.119 1285.23M594.999 1342.64L613.296 1294.52M620.681 1351.55L636.576 1302.57M646.772 1359.24L660.187 1309.54M673.194 1365.72L684.106 1315.41M699.591 1370.91L708.586 1320.22M726.5 1374.89L732.939 1323.82M753.587 1377.63L757.42 1326.29M780.444 1379.11L782.335 1327.65M807.684 1379.34L806.943 1327.85M834.874 1378.31L831.552 1326.93M861.68 1376.07L856.415 1324.86M888.664 1372.54L880.819 1321.65M915.419 1367.74L905.07 1317.3M941.944 1361.69L929.091 1311.84M967.83 1354.51L953.137 1305.17M993.665 1346.01L976.57 1297.44M1019.07 1336.3L999.619 1288.63M1043.98 1325.43L1022.21 1278.77M1068.33 1313.42L1044.34 1267.86M1092.1 1300.3L1065.93 1255.94M1115.2 1286.07L1086.94 1243.04M1137.38 1270.98L1107.58 1228.97M1159.08 1254.69L1127.31 1214.16M1179.98 1237.4L1146.32 1198.43M1200.06 1219.16L1164.6 1181.83M1219.31 1200.01L1182.1 1164.41M1237.63 1179.99L1198.76 1146.2M1255 1159.12L1214.55 1127.25M1271.38 1137.49L1229.45 1107.59M1286.59 1115.35L1243.58 1086.98M1300.87 1092.26L1256.56 1066.01M1314.09 1068.54L1268.55 1044.48M1326.17 1044.23L1279.51 1022.42M1337.11 1019.35L1289.43 999.867M1346.87 993.968L1298.27 976.883M1355.3 968.481L1306.11 953.209M1362.64 942.305L1312.73 929.51M1368.74 915.796L1318.25 905.53M1373.6 889.032L1322.67 881.32M1377.15 862.396L1325.97 856.625M1379.53 835.301L1328.11 832.108M1445.36 793.188L1388.11 793.469M1444.44 763.003L1387.3 766.144M1442.14 732.893L1385.2 738.869M1438.46 703.269L1381.8 711.365M1433.37 673.492L1377.18 684.397M1426.88 644.021L1371.3 657.684M1419.01 614.882L1364.17 631.252M1409.78 586.152L1355.81 605.178M1399.36 558.213L1346.1 579.18M1387.48 530.479L1335.29 554M1374.32 503.332L1323.34 529.33M1359.9 476.849L1310.23 505.248M1344.29 451.056L1296.02 481.804M1327.5 426.054L1280.74 459.049M1309.54 401.844L1264.38 437.01M1290.47 378.503L1247.03 415.762M1270.36 356.08L1228.74 395.332M1249.23 334.603L1209.49 375.77M1227.13 314.121L1189.38 357.127M1204.1 294.687L1168.43 339.429M1180.46 276.555L1146.4 322.523M1155.73 259.317L1123.89 306.843M1130.2 243.253L1100.66 292.261M1103.96 228.416L1076.79 278.777M1077.02 214.804L1052.31 266.416M1049.47 202.469L1027.29 255.205M1021.37 191.437L1001.79 245.194M992.771 181.732L975.854 236.384M963.742 173.381L949.534 228.799M934.687 166.486L922.549 222.389M904.993 160.893L895.641 217.332M875.07 156.68L868.554 213.502M845.351 153.87L840.955 210.922M815.146 152.44L813.613 209.62M784.89 152.389L786.245 209.569M755.043 153.692L758.57 210.795M724.915 156.424L731.329 213.272M694.966 160.561L704.217 217.026M665.247 166.103L677.308 222.031M636.167 172.947L650.324 228.39M607.112 181.247L624.003 235.898M578.492 190.875L598.04 244.632M550.331 201.831L572.512 254.567M522.759 214.089L547.469 265.676M496.08 227.471L522.657 278.138M469.76 242.257L498.764 291.571M444.181 258.244L475.535 306.102M419.368 275.38L452.971 321.681M395.373 293.64L431.148 338.306M372.246 313.023L410.117 355.927M350.066 333.454L389.93 374.493M328.856 354.88L370.637 393.979M308.873 377.021L352.033 414.588M289.733 400.312L334.631 435.784M271.692 424.496L318.251 457.772M254.801 449.473L302.919 480.476M239.085 475.24L288.634 503.869M224.596 501.698L275.474 527.9M211.334 528.819L263.438 552.493M199.502 556.196L252.45 577.954M188.846 584.466L242.791 603.569M179.519 613.171L234.358 629.592M171.572 642.31L227.152 655.973M164.979 671.806L221.172 682.686M159.843 701.226L216.419 709.96M156.061 731.208L212.995 737.081M153.633 761.343L210.797 764.33M152.637 791.196L209.877 792.014M152.994 821.433L210.209 819.339M154.758 851.594L211.794 846.614M157.901 881.269L214.681 874.144M162.449 911.123L218.821 901.163M168.403 940.747L224.213 927.978M175.661 969.707L230.934 954.869M184.349 998.616L238.83 981.071M194.392 1027.09L247.927 1006.86M205.738 1055.03L258.225 1032.22M218.387 1082.43L269.699 1057.1M232.314 1109.2L282.348 1081.41M247.493 1135.27L296.122 1105.11M263.668 1160.32L311.173 1128.43M281.173 1184.89L327.093 1150.75M299.801 1208.59L344.035 1172.3M319.503 1231.42L361.974 1193.06M340.253 1253.31L380.833 1212.96M361.999 1274.2L400.611 1231.96M384.691 1294.07L421.233 1250.04M408.277 1312.86L442.673 1267.15M432.426 1330.35L465.16 1283.42M457.673 1346.88L488.108 1298.43M483.661 1362.23L511.719 1312.35M510.34 1376.32L535.919 1325.17M537.657 1389.19L560.706 1336.84M565.561 1400.76L586.005 1347.34M593.645 1410.9L612.095 1356.76M622.521 1419.81L638.262 1364.81M651.78 1427.35L664.762 1371.62M681.397 1433.5L691.568 1377.22M710.912 1438.23L718.936 1381.58M740.963 1441.6L746.125 1384.62M771.142 1443.59L773.417 1386.44M801.04 1444.2L801.117 1387M831.27 1443.41L828.46 1386.28M861.424 1441.24L855.726 1384.32M891.092 1437.72L883.247 1381.05M920.888 1432.74L910.232 1376.53M950.454 1426.38L936.987 1370.78M979.662 1418.64L963.461 1363.78M1008.13 1409.65L989.883 1355.43M1036.47 1399.23L1015.59 1345.96M1064.3 1387.48L1040.84 1335.31M1091.51 1374.46L1065.55 1323.48M1118.11 1360.18L1089.7 1310.51M1143.97 1344.66L1113.21 1296.41M1169.09 1327.95L1136.05 1281.24M1193.14 1310.31L1158.44 1264.82M1216.6 1291.38L1179.77 1247.61M1239.16 1271.39L1200.27 1229.4M1260.75 1250.34L1219.92 1210.27M1281.38 1228.33L1238.68 1190.25M1300.95 1205.4L1256.46 1169.39M1319.43 1181.57L1273.28 1147.73M1336.8 1156.9L1289.07 1125.34M1352.8 1131.75L1303.97 1101.92M1367.8 1105.57L1317.56 1078.14M1381.55 1078.7L1330.06 1053.75M1394.04 1051.22L1341.38 1028.83M1405.24 1023.18L1351.52 1003.39M1415.07 994.632L1360.44 977.522M1423.46 965.978L1368.23 950.937M1430.59 936.635L1374.67 924.352M1436.33 906.96L1379.89 897.511M1440.7 877.055L1383.85 870.466M1443.62 847.329L1386.56 842.885M1445.2 817.143L1387.99 815.611M1516.78 770.97L1453.23 773.218M1514.76 737.465L1451.39 742.879M1511.18 704.086L1448.17 712.667M1506.1 671.321L1443.44 682.251M1499.4 638.454L1437.36 652.474M1491.17 605.944L1429.9 623.003M1481.44 573.868L1421.08 593.915M1470.22 542.278L1410.91 565.236M1457.67 511.607L1399.23 536.71M1443.54 481.216L1386.4 509.104M1428 451.516L1372.27 482.11M1411.11 422.581L1356.89 455.806M1392.87 394.464L1340.3 430.243M1373.37 367.266L1322.57 405.496M1352.62 340.987L1303.66 381.567M1330.64 315.705L1283.68 358.557M1307.54 291.469L1262.65 336.467M1283.34 268.332L1240.62 315.398M1258.1 246.343L1217.62 295.376M1231.85 225.53L1193.75 276.427M1205 206.172L1168.71 258.372M1176.91 187.861L1143.16 241.721M1148.01 170.879L1116.86 226.296M1118.34 155.275L1089.88 212.123M1087.96 141.076L1062.28 199.226M1056.96 128.307L1034.12 187.632M1025.38 117.019L1005.47 177.391M993.308 107.212L976.365 168.478M960.777 98.9126L946.876 160.944M928.273 92.2472L916.671 154.739M895.104 87.0119L886.62 150.014M861.731 83.36L856.415 146.694M828.613 81.2404L825.674 144.728M795.035 80.653L795.265 144.217M761.432 81.6234L764.882 145.085M728.314 84.0751L734.166 147.358M694.941 88.1101L703.987 151.036M661.823 93.7284L674.012 156.118M628.986 100.879L644.293 162.579M596.942 109.46L614.548 170.547M564.948 119.649L585.57 179.791M533.491 131.32L557.052 190.364M502.622 144.447L529.045 202.265M472.418 159.004L501.626 215.468M443.261 174.76L474.513 230.127M414.564 192.075L448.448 245.858M386.684 210.692L423.124 262.79M359.725 230.587L398.618 280.871M333.711 251.706L374.955 300.075M308.694 274.001L352.212 320.353M284.75 297.419L330.415 341.651M261.905 321.936L309.64 363.946M240.465 347.193L289.682 387.466M219.997 373.727L271.079 411.6M200.78 401.18L253.625 436.55M182.867 429.476L237.348 462.267M166.282 458.615L222.271 488.75M151.052 488.495L208.446 515.871M137.253 519.064L195.925 543.606M125.038 549.888L184.579 572.259M114.178 581.632L174.741 601.041M104.8 613.861L166.257 630.231M96.9547 646.498L159.153 659.778M90.6429 679.468L153.429 689.632M85.941 712.31L149.059 720.099M82.7212 745.739L146.146 750.336M81.0603 779.296L144.638 780.675M80.958 812.495L144.562 811.448M82.389 846.026L145.839 841.762M85.3533 879.456L148.522 871.999M89.8508 912.323L152.688 902.491M95.9326 945.344L158.182 932.37M103.522 978.032L165.056 961.969M112.543 1009.95L173.437 991.593M123.199 1041.78L183.097 1020.43M135.311 1073.03L194.085 1048.77M148.88 1103.7L206.402 1076.58M163.88 1133.69L220.022 1103.81M180.26 1162.93L234.869 1130.37M197.969 1191.38L250.942 1156.21M216.777 1218.63L268.447 1181.57M237.041 1245.29L286.897 1205.81M258.532 1270.98L306.42 1229.17M281.173 1295.67L327.042 1251.62M304.963 1319.27L348.66 1273.1M329.827 1341.74L371.275 1293.53M355.688 1363.04L394.785 1312.91M382.519 1383.12L419.163 1331.17M409.938 1401.71L444.692 1348.49M438.533 1419.23L470.68 1364.4M467.895 1435.39L497.358 1379.06M498.023 1450.15L524.701 1392.46M528.789 1463.51L552.606 1404.57M560.17 1475.38L581.073 1415.34M591.703 1485.68L610.357 1424.92M624.08 1494.59L639.693 1432.97M656.84 1501.97L669.361 1439.66M689.907 1507.82L699.285 1444.94M722.82 1512.06L729.822 1448.88M756.321 1514.79L760.103 1451.35M789.899 1515.99L790.461 1452.43M823.093 1515.63L821.253 1452.09M856.645 1513.74L851.586 1450.38M890.07 1510.3L881.816 1447.27M922.907 1505.37L912.276 1442.7M955.846 1498.83L942.098 1436.77M988.452 1490.76L971.612 1429.47M1020.62 1481.18L1000.77 1420.81M1051.95 1470.23L1029.85 1410.62M1083.05 1457.69L1058.06 1399.23M1113.54 1443.69L1085.71 1386.54M1143.33 1428.29L1112.75 1372.57M1172.36 1411.54L1139.12 1357.35M1200.57 1393.43L1164.77 1340.9M1227.92 1374.02L1189.64 1323.28M1254.03 1353.62L1213.94 1304.28M1279.43 1331.78L1237.04 1284.41M1303.81 1308.8L1259.2 1263.5M1327.09 1284.69L1280.38 1241.58M1349.25 1259.56L1300.52 1218.73M1370.18 1233.44L1319.55 1194.95M1389.9 1206.34L1337.49 1170.33M1408.33 1178.35L1354.26 1144.9M1425.27 1149.85L1370.02 1118.39M1441.04 1120.28L1384.33 1091.52M1455.4 1089.99L1397.34 1064.02M1468.3 1059.04L1409.04 1035.95M1479.75 1027.52L1419.44 1007.38M1489.74 995.5L1428.49 978.364M1498.1 963.399L1436.26 948.561M1505.02 930.557L1442.52 918.835M1510.42 897.434L1447.4 888.854M1514.25 864.082L1450.87 858.693M1516.47 830.985L1452.94 827.997M1517.19 797.402L1453.58 797.632M1596.58 823.681L1525.95 821.255M1596.92 786.395L1526.26 787.493M1595.54 749.135L1525.03 753.758M1592.47 712.412L1522.17 719.665M1587.61 675.458L1517.77 686.184M1581.05 638.786L1511.82 652.934M1572.77 602.445L1504.31 619.964M1562.78 566.539L1495.26 587.378M1551.25 531.577L1484.53 554.868M1537.94 496.795L1472.42 523.277M1523.01 462.676L1458.85 492.274M1506.51 429.298L1443.82 461.935M1488.46 396.737L1427.42 432.311M1468.94 365.044L1409.66 403.479M1447.96 334.322L1390.57 375.515M1425.6 304.596L1370.2 348.444M1401.86 275.942L1348.61 322.345M1376.85 248.412L1325.81 297.266M1350.55 222.057L1301.9 273.261M1323.08 196.953L1276.9 250.404M1294.79 173.407L1250.53 228.467M1265.1 150.959L1223.5 208.062M1234.38 129.916L1195.57 188.934M1202.72 110.328L1166.77 171.134M1170.17 92.2472L1137.2 154.713M1136.79 75.6986L1106.87 139.671M1102.65 60.7078L1075.9 126.06M1067.85 47.3259L1044.31 113.929M1032.43 35.6295L1012.22 103.305M996.936 25.7208L979.253 94.086M960.599 17.3443L946.314 86.5012M923.878 10.6789L913.068 80.4742M887.336 5.7756L879.133 75.9285M850.155 2.55782L845.504 73.0171M812.872 1L811.773 71.6125M775.972 1.15323L777.556 71.7658M738.689 3.06858L743.825 73.5024M701.533 6.72051L710.222 76.8223M664.608 12.109L676.797 81.6745M628.424 19.132L643.194 88.1867M592.163 27.917L610.357 96.1546M556.388 38.4132L577.904 105.68M521.123 50.5692L545.936 116.687M486.498 64.3597L514.505 129.201M452.971 79.5804L483.304 143.349M419.802 96.5121L453.201 158.748M387.477 114.976L423.814 175.552M356.02 134.947L395.219 193.71M325.534 156.348L367.519 213.17M296.096 179.127L340.739 233.881M267.731 203.261L314.929 255.818M240.516 228.671L290.167 278.93M214.809 255.001L266.224 303.446M190.047 282.837L243.736 328.755M166.64 311.772L222.475 355.084M144.587 341.779L202.441 382.359M123.965 372.782L183.71 410.502M104.8 404.705L166.308 439.487M87.1421 437.495L150.286 469.239M71.222 470.695L135.464 500.089M56.7074 505.018L122.33 531.22M43.8283 540.005L110.677 562.912M32.6101 575.554L100.507 595.09M23.053 611.588L91.844 627.702M15.2846 647.622L84.6378 661.131M9.12613 684.422L79.0926 694.433M4.70531 721.478L75.0806 727.939M2.02216 758.252L72.5764 762.032M1 795.563L71.6564 795.768M1.68996 832.874L72.2697 829.503M4.09202 869.649L74.4929 863.622M8.2573 906.73L78.2749 897.179M14.1602 943.556L83.6156 930.506M21.6986 979.616L90.6174 963.986M31.0258 1015.7L99.0757 996.675M42.0395 1051.3L109.067 1028.96M54.6887 1086.34L120.541 1060.75M68.9733 1120.74L133.497 1091.96M84.8422 1154.42L147.909 1122.55M102.296 1187.32L163.753 1152.46M121.026 1219.01L181.18 1181.95M141.444 1250.14L199.758 1210.25M163.267 1280.3L219.613 1237.65M186.47 1309.39L240.721 1264.11M211.002 1337.38L263.029 1289.57M236.811 1364.19L286.488 1313.96M263.821 1389.81L311.045 1337.28M292.007 1414.14L336.65 1359.39M320.96 1436.87L363.609 1380.56M351.292 1458.48L391.182 1400.18M382.596 1478.65L419.623 1418.49M414.819 1497.35L448.857 1435.47M447.886 1514.53L478.857 1451.05M481.719 1530.14L509.547 1465.22M515.885 1544.01L541.285 1478.09M551.098 1556.37L573.177 1489.28M586.822 1567.09L605.528 1498.98M623.032 1576.11L638.313 1507.15M659.216 1583.36L671.866 1513.87M696.116 1588.98L705.239 1518.95M733.246 1592.91L738.817 1522.5M770.069 1595.11L772.957 1524.55M807.403 1595.62L806.713 1525.01M844.712 1594.39L840.47 1523.91M881.484 1591.48L874.559 1521.2M918.511 1586.78L908.06 1516.93M955.258 1580.37L941.356 1511.14M991.672 1572.25L974.347 1503.78M1027.24 1562.55L1007.39 1494.77M1062.71 1551.03L1039.53 1484.32M1097.59 1537.88L1071.2 1472.37M1131.81 1523.12L1102.24 1458.96M1165.28 1506.77L1132.65 1444.13M1197.97 1488.89L1162.35 1427.91M1229.76 1469.54L1191.25 1410.31M1260.27 1448.93L1219.66 1391.13M1290.14 1426.71L1246.83 1370.91M1318.94 1403.11L1272.99 1349.46M1346.59 1378.24L1298.14 1326.83M1373.06 1352.09L1322.24 1303.03M1398.34 1324.71L1345.21 1278.13M1422.28 1296.18L1366.98 1252.21M1444.87 1266.59L1387.53 1225.32M1465.85 1236.32L1407.05 1197.17M1485.63 1204.76L1424.99 1168.49M1503.87 1172.3L1441.55 1139.02M1520.61 1139.02L1456.73 1108.84M1535.76 1104.98L1470.47 1077.99M1549.31 1070.25L1482.77 1046.5M1561.06 1035.31L1493.68 1014.07M1571.28 999.433L1502.9 981.582M1579.79 963.118L1510.62 948.715M1586.64 926.42L1516.83 915.541M1591.7 889.901L1521.51 881.677M1595.1 852.743L1524.6 848.07" stroke="white" stroke-width="3" stroke-miterlimit="10"/>
</svg>
