<?xml version="1.0" standalone="no"?>
<!DOCTYPE svg PUBLIC "-//W3C//DTD SVG 20010904//EN"
 "http://www.w3.org/TR/2001/REC-SVG-20010904/DTD/svg10.dtd">
<svg version="1.0" xmlns="http://www.w3.org/2000/svg"
 width="1453.000000pt" height="1453.000000pt" viewBox="0 0 1453.000000 1453.000000"
 preserveAspectRatio="xMidYMid meet">
<metadata>
Created by potrace 1.14, written by Peter Selinger 2001-2017
</metadata>
<g transform="translate(0.000000,1453.000000) scale(0.100000,-0.100000)"
fill="#000000" stroke="none">
<path d="M8695 14273 c-60 -14 -179 -60 -243 -94 -152 -80 -356 -243 -447
-356 -25 -32 -53 -66 -61 -76 -45 -55 -117 -214 -128 -281 -4 -21 -9 -42 -11
-47 -7 -10 -7 -183 0 -229 10 -72 49 -222 64 -245 4 -5 13 -28 20 -50 8 -22
40 -94 73 -160 140 -284 300 -466 447 -510 l24 -7 -7 98 c-17 239 -20 331 -20
524 0 113 6 234 12 270 7 36 15 78 18 95 3 16 17 51 31 77 35 63 71 75 128 43
87 -49 159 -199 270 -569 104 -348 114 -366 180 -330 136 73 315 250 423 419
57 90 142 298 158 385 3 14 7 33 10 43 7 21 6 132 0 162 -27 130 -96 281 -175
385 -94 124 -217 241 -330 314 -168 110 -335 163 -436 139z m142 -29 c217 -50
490 -258 637 -483 122 -188 167 -364 132 -518 -59 -263 -202 -499 -415 -686
-60 -52 -182 -130 -191 -121 -16 18 -50 112 -100 284 -118 398 -194 566 -283
620 -18 11 -27 20 -21 20 15 0 63 -38 89 -69 58 -70 116 -213 235 -578 39
-122 77 -229 84 -238 10 -13 15 -13 53 6 76 37 261 228 353 364 171 252 223
481 155 681 -84 246 -275 466 -541 623 -149 88 -267 108 -385 67 -150 -53
-293 -140 -454 -277 -131 -111 -211 -211 -275 -342 -89 -186 -92 -347 -9 -607
46 -147 165 -378 258 -501 86 -113 188 -216 203 -201 4 4 10 77 12 161 4 156
11 203 15 108 3 -76 8 -142 16 -229 4 -43 4 -78 1 -78 -23 0 -110 57 -156 102
-138 133 -295 406 -376 653 -44 135 -49 170 -48 310 1 239 107 435 349 645
192 166 412 279 582 299 6 0 42 -6 80 -15z m-350 -895 c-28 -16 -66 -103 -82
-185 -8 -43 -17 -80 -21 -83 -3 -3 -4 8 -1 24 3 17 9 53 12 80 9 73 67 176 99
175 6 0 3 -5 -7 -11z"/>
<path d="M5402 13864 c-201 -41 -328 -189 -361 -417 -30 -205 35 -576 126
-720 162 -257 546 -565 1007 -807 73 -38 140 -70 149 -70 41 0 11 127 -88 380
-106 271 -139 374 -136 424 2 33 89 17 158 -29 62 -41 195 -170 309 -299 130
-149 149 -168 175 -182 24 -12 30 -11 53 7 46 36 74 106 93 234 10 64 10 415
1 519 -8 79 -8 80 -79 174 -40 51 -77 99 -83 105 -6 7 -29 35 -51 62 -70 88
-267 278 -358 346 -161 120 -319 199 -487 243 -152 40 -323 52 -428 30z m233
-19 c44 -3 96 -10 115 -15 19 -5 46 -11 60 -14 160 -30 394 -156 572 -306 152
-128 487 -517 476 -551 -2 -6 -35 31 -73 82 -106 142 -169 215 -279 322 -178
174 -387 324 -522 376 -33 13 -68 27 -79 32 -11 4 -69 20 -130 36 -91 22 -132
27 -240 28 -129 0 -131 0 -200 -34 -82 -41 -171 -124 -204 -193 -73 -152 -61
-500 25 -739 73 -202 196 -341 544 -612 19 -15 198 -133 272 -180 159 -101
318 -169 318 -138 0 16 -77 241 -133 392 -61 160 -97 281 -97 321 0 14 7 31
15 38 19 16 96 16 122 1 15 -9 13 -10 -12 -4 -84 19 -121 -4 -110 -67 7 -39
32 -124 45 -155 24 -54 150 -388 168 -445 27 -87 36 -140 22 -140 -16 0 -224
110 -341 181 -265 160 -421 279 -599 458 -192 193 -249 309 -299 606 -55 324
32 586 225 681 56 27 169 51 224 48 19 -2 71 -6 115 -9z m1232 -957 c-3 -8 -6
-5 -6 6 -1 11 2 17 5 13 3 -3 4 -12 1 -19z m7 -288 c-2 -236 -25 -358 -82
-422 -8 -10 -21 -18 -29 -18 -15 0 -84 68 -153 151 -25 29 -98 108 -162 174
-64 66 -116 121 -114 122 2 2 99 -94 217 -212 118 -118 220 -215 226 -215 16
0 51 99 58 165 4 31 9 66 11 78 3 12 7 117 9 232 3 116 5 212 6 215 8 21 14
-117 13 -270z m-629 70 c3 -6 -1 -7 -9 -4 -18 7 -21 14 -7 14 6 0 13 -4 16
-10z m75 -56 c0 -3 -13 4 -30 16 -16 12 -30 24 -30 26 0 3 14 -4 30 -16 17
-12 30 -24 30 -26z"/>
<path d="M3590 12863 c-14 -2 -52 -8 -85 -14 -33 -6 -71 -13 -85 -16 -58 -10
-208 -66 -243 -90 -45 -31 -83 -93 -103 -165 -14 -53 -19 -196 -9 -253 3 -16
10 -59 16 -95 39 -223 284 -475 612 -630 119 -56 188 -76 292 -86 39 -3 86 -8
105 -10 19 -2 100 -5 180 -5 152 -2 230 11 230 36 0 8 -24 26 -52 41 -185 92
-447 303 -534 429 -46 67 -68 139 -49 155 22 18 100 -9 214 -75 108 -61 223
-96 362 -110 90 -10 213 -8 254 3 36 10 37 22 6 145 -99 389 -403 663 -816
732 -45 7 -256 13 -295 8z m250 -27 c267 -21 549 -184 699 -405 73 -106 139
-270 155 -383 l7 -46 -41 -7 c-23 -4 -44 -4 -47 -1 -4 3 3 6 15 6 56 0 54 93
-6 230 -79 180 -183 314 -325 418 -54 40 -166 100 -219 117 -13 4 -27 9 -33
11 -78 29 -187 45 -315 48 -221 5 -443 -49 -539 -130 -77 -64 -110 -209 -86
-370 3 -24 7 -47 7 -51 2 -15 37 -112 54 -150 44 -96 162 -236 260 -309 22
-16 48 -37 58 -46 28 -25 197 -125 253 -149 146 -64 239 -78 528 -80 83 -1
155 -1 160 0 6 1 -15 15 -45 32 -94 55 -287 200 -306 231 -4 6 22 -12 57 -41
35 -29 71 -58 79 -64 33 -26 178 -117 220 -138 l44 -23 -34 -8 c-42 -10 -322
-8 -388 2 -26 4 -79 11 -118 14 -90 8 -234 68 -386 159 -224 134 -419 363
-444 522 -3 22 -9 60 -14 84 -15 82 -6 241 18 301 40 102 95 140 267 186 186
49 257 55 465 40z m-6 -698 c-7 -11 16 -76 44 -122 13 -21 60 -77 105 -125 99
-105 95 -103 -18 9 -94 92 -145 177 -145 239 0 26 3 32 9 21 6 -8 7 -18 5 -22z
m281 -26 c99 -45 229 -85 345 -107 l75 -15 -73 6 c-40 3 -82 7 -92 10 -47 10
-57 13 -100 24 -25 7 -52 14 -61 15 -22 4 -56 22 -144 75 -80 48 -75 47 50 -8z"/>
<path d="M10895 12304 c-49 -6 -126 -19 -170 -28 -44 -10 -91 -20 -105 -22
-14 -3 -86 -26 -160 -51 -423 -143 -745 -418 -819 -699 -28 -110 -31 -263 -5
-355 4 -16 8 -15 42 1 521 251 744 336 787 300 67 -56 -81 -226 -460 -530 -71
-57 -141 -115 -154 -129 l-23 -24 26 -14 c69 -36 287 24 656 179 245 103 361
162 450 228 103 76 241 214 293 293 76 114 135 266 153 392 17 113 1 326 -27
389 -34 74 -234 103 -484 70z m340 -19 c60 -10 102 -31 118 -57 40 -61 48
-353 13 -473 -69 -239 -194 -409 -432 -586 -76 -56 -98 -68 -284 -151 -191
-86 -397 -167 -526 -207 -143 -45 -139 -37 6 13 270 93 632 258 791 361 65 42
202 168 254 235 92 116 165 281 190 430 9 52 9 208 0 260 -18 106 -52 148
-130 159 -137 18 -477 -10 -579 -49 -14 -5 -26 -7 -26 -5 0 2 -12 0 -27 -6
-16 -6 -35 -12 -43 -14 -8 -2 -49 -15 -90 -30 -421 -153 -716 -404 -784 -668
-14 -52 -32 -206 -29 -249 0 -10 -4 -18 -8 -18 -10 0 -5 188 6 230 3 14 8 35
11 47 18 87 111 230 215 334 233 229 641 402 1056 445 32 4 59 7 60 9 6 4 201
-3 238 -10z m-737 -817 c20 -25 18 -86 -2 -114 -13 -17 -13 -14 -2 20 16 45 5
92 -22 99 -15 4 -15 5 -1 6 9 0 21 -5 27 -11z m-219 -22 c-2 -2 -60 -27 -129
-56 -127 -53 -164 -70 -369 -167 -63 -29 -118 -52 -123 -51 -9 3 46 30 254
128 141 65 386 163 367 146z m190 -138 c-15 -29 -222 -235 -309 -308 -36 -30
-106 -96 -157 -146 -70 -69 -97 -90 -114 -87 -13 2 -24 4 -25 6 -1 1 57 49
128 107 272 220 430 366 471 436 13 23 19 16 6 -8z m-472 -534 c-3 -3 -12 -4
-19 -1 -8 3 -5 6 6 6 11 1 17 -2 13 -5z"/>
<path d="M8230 11903 c-97 -14 -295 -107 -404 -191 -75 -56 -208 -190 -267
-268 -135 -177 -197 -330 -193 -472 5 -212 159 -655 265 -762 22 -22 44 -40
49 -40 5 0 17 12 27 28 116 182 348 448 459 528 74 53 113 63 139 38 15 -16
17 -30 12 -114 -4 -52 -20 -165 -37 -250 -17 -85 -33 -168 -36 -185 -3 -16 -9
-48 -14 -70 -25 -113 -32 -226 -13 -232 28 -10 316 259 408 382 112 150 193
364 212 567 7 75 9 261 2 358 -6 94 -131 375 -222 500 -100 137 -242 203 -387
183z m165 -38 c95 -35 162 -92 229 -194 64 -99 163 -316 187 -411 10 -36 13
-354 5 -400 -3 -14 -7 -41 -10 -60 -8 -53 -25 -123 -50 -205 -18 -59 -74 -173
-121 -246 -66 -103 -395 -427 -407 -402 -3 4 -4 13 -3 18 3 23 17 121 20 135
12 58 16 79 21 110 3 19 9 53 14 75 5 22 11 54 14 70 35 188 43 245 45 318 2
75 0 88 -18 106 -51 51 -137 8 -281 -138 -102 -103 -139 -145 -205 -231 -28
-36 -55 -70 -60 -76 -6 -6 -28 -38 -50 -72 -22 -34 -42 -61 -45 -61 -3 0 -12
5 -20 12 -103 84 -254 505 -267 744 -5 89 -3 112 17 170 82 248 317 518 571
656 135 74 260 109 349 96 25 -3 54 -10 65 -14z"/>
<path d="M8175 11846 c-156 -39 -289 -127 -465 -306 -204 -208 -313 -407 -303
-555 17 -258 185 -735 258 -735 11 0 55 40 80 72 228 294 427 480 522 492 59
6 83 -34 83 -136 0 -40 -5 -104 -11 -143 -6 -38 -12 -79 -14 -90 -2 -11 -6
-33 -9 -50 -10 -53 -36 -209 -40 -240 -5 -37 -17 -122 -21 -152 -3 -19 -1 -21
14 -14 36 20 279 268 323 331 94 133 153 275 173 415 3 23 8 52 10 65 20 100
23 405 5 480 -14 62 -80 222 -119 290 -15 25 -33 58 -41 75 -8 16 -46 62 -85
101 -54 55 -83 76 -128 93 -66 24 -153 27 -232 7z"/>
<path d="M5045 10880 c-42 -27 -62 -71 -81 -170 -7 -39 -7 -213 0 -275 2 -22
7 -74 11 -115 7 -70 12 -81 83 -195 206 -330 332 -447 623 -577 159 -71 583
-208 642 -208 29 0 18 47 -41 171 -27 57 -78 163 -112 234 -129 269 -154 340
-124 352 50 19 190 -54 369 -192 58 -44 157 -121 222 -171 231 -177 267 -183
216 -32 -71 212 -332 622 -498 781 -269 259 -696 415 -1141 416 -121 0 -144
-3 -169 -19z m445 -24 c47 -9 94 -18 105 -20 210 -44 419 -128 580 -234 72
-47 225 -192 287 -272 48 -62 164 -234 191 -284 13 -22 35 -60 49 -82 64 -100
160 -325 145 -340 -3 -3 -16 0 -29 7 -22 11 -258 186 -268 199 -10 12 -177
138 -245 184 -76 52 -92 65 -58 47 36 -18 208 -140 365 -257 80 -60 161 -118
179 -128 l32 -19 -6 33 c-4 18 -23 65 -43 104 -50 97 -164 290 -175 294 -5 2
-9 8 -9 13 0 27 -205 297 -280 369 -190 183 -489 316 -840 375 -19 4 -119 9
-222 12 l-186 5 -21 -47 c-30 -69 -38 -136 -35 -297 4 -205 12 -246 78 -361
104 -182 242 -342 379 -438 86 -60 229 -134 363 -187 120 -48 372 -130 425
-138 l39 -6 -39 88 c-21 49 -57 130 -81 179 -121 259 -175 394 -167 418 2 6 9
-9 15 -34 12 -46 90 -222 205 -459 75 -156 97 -207 91 -213 -15 -14 -491 141
-636 207 -203 93 -362 215 -468 360 -73 100 -205 319 -208 346 -1 14 -7 59
-11 100 -10 83 -8 329 3 374 14 57 48 105 86 119 28 11 325 -2 410 -17z m685
-757 c5 -6 -10 -3 -34 6 -57 20 -100 19 -124 -2 -19 -17 -20 -17 -8 4 6 12 21
23 33 25 26 4 118 -19 133 -33z m40 -19 c3 -6 -1 -7 -9 -4 -18 7 -21 14 -7 14
6 0 13 -4 16 -10z"/>
<path d="M3435 10198 c-38 -5 -90 -18 -115 -31 -43 -21 -46 -25 -62 -92 -57
-225 14 -415 234 -633 105 -104 182 -161 296 -220 78 -40 241 -108 297 -123
17 -4 62 -17 100 -29 148 -44 169 -38 119 35 -23 35 -161 204 -175 215 -16 13
-123 169 -135 197 -21 49 -11 62 45 58 99 -7 294 -93 487 -214 53 -34 97 -61
99 -61 4 0 -4 119 -10 160 -17 103 -76 234 -147 327 -43 57 -151 161 -214 209
-21 16 -48 37 -59 47 -109 100 -515 183 -760 155z m320 -33 c166 -27 297 -63
365 -101 73 -41 240 -184 306 -263 97 -116 158 -256 170 -390 l7 -70 -109 64
c-151 90 -155 94 -31 30 60 -30 112 -55 117 -55 18 0 -25 157 -68 249 -67 146
-225 308 -407 417 -120 72 -344 118 -575 119 -122 0 -166 -12 -205 -55 -43
-48 -53 -194 -20 -308 62 -212 261 -419 536 -557 144 -73 381 -161 400 -149
13 7 -13 52 -61 104 -79 86 -210 273 -210 298 0 4 15 -15 32 -43 27 -44 132
-181 148 -195 17 -15 150 -183 150 -190 0 -5 -30 0 -67 11 -38 10 -90 25 -118
33 -132 36 -332 129 -453 210 -85 56 -247 222 -306 313 -85 132 -113 279 -79
426 17 74 31 88 110 106 58 13 279 11 368 -4z m293 -562 c-10 -2 -28 -2 -40 0
-13 2 -5 4 17 4 22 1 32 -1 23 -4z m207 -61 c44 -19 85 -40 90 -45 6 -5 -8 -1
-30 9 -132 57 -203 84 -222 84 -13 0 -23 4 -23 9 0 14 89 -14 185 -57z m-291
-5 c4 -19 3 -26 -4 -22 -5 3 -10 18 -10 32 0 32 5 28 14 -10z"/>
<path d="M9400 9974 c-341 -49 -674 -204 -906 -423 -171 -163 -257 -336 -299
-606 -7 -47 -7 -229 0 -265 3 -14 7 -36 10 -50 2 -14 14 -51 26 -83 l22 -58
175 173 c96 95 183 180 192 188 9 8 43 40 76 70 33 30 89 80 123 110 35 30 69
61 77 68 7 6 17 12 22 12 6 0 12 4 14 9 5 15 130 91 149 91 37 0 41 -82 14
-255 -3 -19 -29 -144 -40 -193 -13 -55 -78 -260 -100 -315 -14 -33 -25 -62
-25 -64 0 -7 69 -3 121 7 30 6 68 13 84 16 17 2 38 7 47 10 9 3 25 7 35 9 219
48 665 253 742 340 90 103 179 315 216 515 12 66 13 295 1 370 -13 84 -47 144
-115 202 -53 45 -161 99 -226 112 -16 4 -41 9 -55 12 -50 13 -287 11 -380 -2z
m392 -24 c68 -15 153 -48 198 -76 68 -42 146 -129 155 -171 11 -61 18 -139 19
-223 2 -84 -1 -117 -18 -230 -16 -107 -80 -275 -146 -385 -65 -108 -57 -101
-250 -207 -71 -39 -226 -107 -330 -144 -128 -47 -350 -108 -359 -98 -2 2 2 5
10 8 8 2 72 20 142 40 281 80 630 241 707 326 66 73 164 278 193 400 26 107
36 317 22 430 -14 108 -57 176 -149 235 -111 70 -212 94 -396 95 -100 0 -123
-1 -215 -16 -303 -46 -659 -219 -853 -413 -125 -125 -201 -250 -246 -406 -33
-113 -41 -179 -40 -340 1 -134 10 -175 41 -175 21 0 104 69 238 198 166 160
308 284 410 360 41 31 110 72 119 72 6 -1 -2 -8 -18 -16 -45 -25 -194 -137
-250 -189 -6 -6 -45 -41 -86 -79 -41 -38 -154 -147 -251 -243 l-176 -175 -13
34 c-65 176 -44 462 51 686 47 110 177 270 299 367 99 78 284 183 413 235 70
27 226 72 296 85 14 3 37 7 51 10 14 3 52 8 85 11 33 4 61 7 63 9 8 7 239 -4
284 -15z m-655 -927 c-3 -10 -5 -2 -5 17 0 19 2 27 5 18 2 -10 2 -26 0 -35z
m-27 -169 c-12 -54 -23 -106 -25 -114 -16 -61 -50 -177 -70 -237 -14 -39 -25
-74 -25 -77 0 -3 15 -6 33 -7 l32 -1 -39 -9 c-21 -5 -41 -7 -44 -5 -2 3 14 61
36 128 42 127 85 283 97 353 4 22 8 47 10 55 2 8 4 26 6 40 l2 25 4 -26 c2
-14 -5 -70 -17 -125z"/>
<path d="M3177 8730 c-144 -46 -218 -171 -211 -352 5 -96 29 -191 74 -285 44
-90 96 -147 168 -185 26 -14 85 -45 132 -70 207 -110 643 -293 885 -373 164
-54 231 -81 268 -107 36 -26 24 -41 -48 -57 -46 -9 -701 -7 -765 3 -14 2 -60
7 -102 10 -274 25 -551 85 -723 156 -11 5 -67 27 -125 50 -261 104 -498 251
-960 594 -334 248 -505 350 -608 363 -68 8 -92 0 -135 -43 -96 -97 -64 -351
75 -599 62 -109 167 -225 332 -368 83 -72 64 -56 191 -155 6 -4 51 -35 100
-69 272 -184 601 -346 1060 -523 251 -97 257 -99 321 -115 59 -15 110 -26 513
-109 452 -94 560 -124 711 -201 390 -200 692 -590 870 -1124 18 -52 33 -101
35 -110 2 -9 15 -63 28 -121 21 -90 31 -140 42 -220 1 -8 5 -44 9 -80 4 -36 9
-83 11 -105 6 -53 6 -399 1 -450 -3 -22 -7 -69 -10 -105 -15 -160 -51 -354
-106 -565 -83 -315 -359 -793 -684 -1185 -39 -47 -80 -95 -91 -106 -11 -12
-53 -58 -93 -103 -128 -140 -341 -350 -477 -470 -28 -24 -66 -58 -85 -76 -33
-30 -367 -313 -400 -338 -8 -7 -40 -32 -70 -57 -30 -25 -62 -50 -70 -57 -8 -7
-44 -36 -81 -65 -36 -29 -82 -66 -104 -83 -21 -16 -52 -41 -69 -55 -43 -35
-50 -41 -146 -117 -47 -37 -90 -72 -97 -78 -6 -5 -26 -21 -44 -35 -18 -14 -37
-29 -43 -35 -6 -5 -34 -28 -61 -50 -55 -44 -78 -64 -73 -66 46 -16 770 -12
1248 7 80 3 197 7 260 9 168 5 429 15 550 20 58 3 170 7 250 10 80 3 195 7
255 10 158 7 362 14 575 20 102 3 253 8 335 10 426 13 1081 27 1275 27 174 1
878 -11 1040 -17 52 -2 178 -6 280 -10 217 -7 326 -11 739 -30 42 -2 164 -6
271 -10 107 -3 236 -8 285 -10 50 -2 162 -7 250 -10 88 -4 187 -8 220 -10 33
-2 125 -7 205 -11 80 -3 165 -8 190 -9 25 -1 115 -5 200 -9 85 -5 193 -10 240
-12 47 -2 203 -6 347 -8 270 -4 374 5 394 35 37 56 -55 144 -261 252 -249 130
-325 172 -505 280 -550 330 -881 580 -1210 911 -313 316 -482 564 -678 996
-70 154 -163 476 -202 695 -26 149 -26 472 0 607 3 13 12 57 19 98 35 180 165
593 256 815 5 11 17 45 29 75 11 30 32 85 46 122 14 36 25 69 25 73 0 15 132
269 192 370 54 90 155 241 195 290 114 142 214 243 275 279 26 15 67 28 99 31
30 3 88 10 129 15 41 6 91 12 110 14 107 14 148 20 275 42 194 33 197 33 225
40 14 3 34 8 45 10 11 2 29 6 40 9 11 2 58 14 105 25 179 42 261 64 390 105
118 36 352 118 405 140 17 7 75 32 130 56 205 88 439 212 598 317 88 58 209
143 217 152 3 3 19 16 35 29 17 12 63 53 104 89 329 295 504 598 495 858 -3
79 -23 118 -82 155 -43 28 -53 30 -114 26 -110 -7 -217 -67 -478 -265 -178
-136 -204 -156 -210 -163 -3 -3 -61 -45 -130 -95 -438 -313 -804 -488 -1154
-550 -17 -3 -76 -14 -131 -24 -203 -39 -332 -59 -480 -75 -33 -4 -71 -9 -85
-11 -107 -17 -468 -25 -570 -12 -30 4 -70 12 -87 19 -30 10 -32 14 -28 47 12
94 93 136 325 167 309 42 471 97 709 237 76 45 111 69 206 141 305 232 395
561 209 766 -56 62 -105 85 -173 78 -75 -7 -128 -32 -451 -214 -346 -194 -575
-296 -760 -340 -91 -21 -86 -20 -183 -47 -49 -14 -100 -27 -115 -30 -15 -2
-76 -14 -137 -26 -60 -12 -121 -24 -135 -26 -20 -4 -243 -46 -365 -70 -11 -2
-63 -13 -115 -24 -52 -12 -103 -23 -113 -25 -10 -2 -26 -6 -35 -9 -9 -3 -28
-7 -42 -10 -65 -12 -231 -60 -337 -98 -194 -67 -337 -148 -405 -227 -67 -78
-161 -292 -228 -519 -29 -98 -100 -378 -115 -452 -4 -19 -27 -111 -52 -205
-25 -93 -47 -177 -49 -185 -1 -8 -17 -68 -33 -134 -17 -65 -33 -128 -35 -140
-106 -514 -225 -1001 -268 -1096 -86 -194 -177 -71 -258 350 -11 58 -22 121
-25 140 -3 19 -7 46 -10 60 -3 14 -7 39 -10 55 -3 17 -7 41 -10 55 -2 14 -13
88 -24 165 -12 77 -23 151 -26 165 -3 14 -8 41 -11 60 -3 19 -7 41 -10 49 -2
8 -7 30 -10 50 -3 20 -30 144 -59 276 -30 132 -57 256 -60 275 -3 19 -8 42
-10 50 -2 8 -6 26 -9 40 -2 14 -9 45 -16 70 -7 25 -14 54 -16 65 -2 11 -22 88
-45 170 -92 340 -226 629 -347 754 -22 23 -68 54 -105 70 -59 26 -240 83 -305
96 -13 2 -32 7 -41 10 -10 3 -83 19 -162 36 -79 17 -164 35 -189 40 -25 6 -56
12 -70 15 -55 10 -357 75 -390 84 -19 5 -46 11 -60 14 -14 2 -54 12 -90 21
-36 9 -72 18 -80 20 -8 2 -35 9 -60 16 -62 17 -62 17 -89 23 -62 14 -265 86
-461 163 -318 126 -491 216 -781 405 -149 97 -157 99 -252 68z m249 -93 c71
-46 185 -116 254 -155 69 -40 132 -76 140 -82 16 -12 -131 64 -192 99 -21 11
-53 30 -72 40 -18 11 -71 43 -117 73 -46 30 -103 65 -126 78 -24 13 -43 28
-43 33 0 14 17 5 156 -86z m-243 58 c-65 -33 -120 -87 -146 -144 -30 -65 -29
-216 1 -324 42 -148 91 -220 195 -285 186 -115 658 -322 1050 -458 120 -42
207 -79 207 -89 0 -2 -24 7 -53 19 -28 13 -88 35 -132 49 -422 134 -1066 424
-1171 527 -20 19 -53 70 -74 115 -98 207 -95 422 8 537 18 21 129 78 151 78 8
0 -8 -11 -36 -25z m7931 -104 c-76 -38 -175 -89 -219 -114 -141 -78 -277 -150
-385 -203 -119 -58 -289 -128 -296 -121 -3 3 14 11 38 20 107 36 352 157 548
269 208 119 306 170 365 194 111 43 90 25 -51 -45z m241 30 c45 -30 99 -105
115 -159 18 -59 23 -153 11 -202 -7 -25 -13 -52 -15 -61 -9 -36 -51 -107 -103
-176 -154 -203 -567 -456 -816 -498 -17 -3 -48 -10 -67 -15 -19 -4 -54 -11
-78 -14 -24 -3 -47 -8 -52 -11 -5 -3 -11 -1 -14 3 -3 5 32 16 77 25 337 66
616 209 845 431 137 133 186 216 198 334 3 31 7 66 8 76 4 29 -14 117 -30 148
-19 36 -79 98 -129 132 -31 21 -34 26 -15 21 14 -4 43 -19 65 -34z m-10263
-187 c-51 -41 -74 -95 -74 -178 1 -154 71 -343 185 -496 154 -206 609 -553
933 -712 138 -68 174 -85 324 -151 88 -39 239 -102 315 -131 39 -15 79 -31 90
-36 74 -35 447 -139 590 -164 17 -3 101 -21 187 -41 86 -19 160 -35 164 -35 4
0 5 -2 2 -5 -3 -4 -184 30 -268 50 -14 3 -202 42 -245 51 -120 23 -226 51
-305 81 -844 312 -1274 553 -1663 933 -138 134 -169 173 -230 295 -86 170
-125 365 -92 460 16 44 75 105 102 105 13 0 9 -7 -15 -26z m183 -19 c77 -36
240 -141 380 -244 226 -168 348 -257 370 -271 13 -8 65 -44 117 -80 51 -36
118 -80 148 -98 30 -18 60 -38 65 -44 6 -7 -3 -4 -19 6 -16 10 -45 28 -65 39
-20 12 -89 57 -154 102 -65 44 -129 87 -142 95 -13 8 -106 74 -207 146 -248
178 -432 297 -541 351 -107 51 -64 50 48 -2z m12125 -31 c24 -10 51 -31 65
-52 22 -32 24 -44 21 -131 -3 -104 -6 -117 -36 -206 -55 -159 -169 -323 -351
-506 -250 -251 -593 -478 -983 -651 -149 -65 -179 -77 -351 -140 -163 -59
-446 -146 -530 -162 -11 -2 -47 -11 -80 -19 -33 -9 -72 -18 -88 -21 -15 -3
-35 -7 -45 -10 -9 -3 -28 -7 -42 -10 -21 -4 -67 -13 -210 -41 -13 -2 -42 -7
-65 -10 -22 -3 -47 -8 -55 -10 -16 -4 -60 -10 -145 -20 -27 -4 -75 -10 -105
-15 -78 -13 -218 -22 -165 -11 22 5 65 11 95 15 30 3 64 7 75 10 11 2 47 7 80
10 132 16 368 58 555 101 1009 229 1818 662 2211 1181 38 51 87 123 109 162
39 68 93 192 84 192 -3 0 0 9 5 19 13 24 25 111 24 178 -2 98 -64 159 -151
148 -93 -12 -215 -87 -594 -366 -153 -113 -360 -254 -313 -215 17 14 55 43 85
63 30 21 57 40 60 43 3 3 77 59 165 125 88 66 162 122 165 125 12 12 120 89
185 132 159 104 239 126 325 92z m-9510 -14 c8 -5 11 -10 5 -10 -5 0 -17 5
-25 10 -8 5 -10 10 -5 10 6 0 17 -5 25 -10z m80 -40 c8 -5 11 -10 5 -10 -5 0
-17 5 -25 10 -8 5 -10 10 -5 10 6 0 17 -5 25 -10z m60 -25 c14 -8 21 -14 15
-14 -5 0 -21 6 -35 14 -14 8 -20 14 -15 14 6 0 21 -6 35 -14z m97 -39 c32 -13
102 -41 155 -62 54 -21 96 -40 94 -41 -4 -5 -191 66 -266 100 -71 33 -59 34
17 3z m353 -137 c25 -10 41 -18 35 -18 -12 -1 -118 38 -125 46 -7 7 35 -6 90
-28z m5710 11 c-8 -5 -19 -10 -25 -10 -5 0 -3 5 5 10 8 5 20 10 25 10 6 0 3
-5 -5 -10z m-83 -26 c-3 -3 -12 -4 -19 -1 -8 3 -5 6 6 6 11 1 17 -2 13 -5z
m-5449 -38 c64 -19 179 -49 255 -67 76 -19 134 -35 129 -37 -13 -4 -348 80
-442 111 -109 36 -78 32 58 -7z m5379 18 c-3 -3 -12 -4 -19 -1 -8 3 -5 6 6 6
11 1 17 -2 13 -5z m-42 -9 c-39 -14 -117 -34 -111 -27 10 10 77 30 101 30 11
0 16 -1 10 -3z m-338 -81 c-3 -3 -12 -4 -19 -1 -8 3 -5 6 6 6 11 1 17 -2 13
-5z m-50 -10 c-3 -3 -12 -4 -19 -1 -8 3 -5 6 6 6 11 1 17 -2 13 -5z m-40 -10
c-3 -3 -12 -4 -19 -1 -8 3 -5 6 6 6 11 1 17 -2 13 -5z m-58 -8 c-2 -3 -49 -14
-104 -26 -55 -12 -129 -27 -165 -35 -36 -8 -78 -16 -95 -19 -16 -3 -79 -17
-140 -31 -60 -14 -148 -34 -195 -45 -313 -71 -585 -182 -690 -281 -90 -86
-165 -238 -237 -479 -78 -265 -212 -790 -348 -1360 -116 -492 -178 -740 -183
-736 -2 3 5 42 17 88 18 72 45 187 56 239 2 9 15 65 30 125 24 99 39 167 51
234 2 14 12 59 21 100 10 41 18 77 18 80 1 3 4 19 8 35 4 17 9 39 11 50 8 37
17 74 91 360 49 189 86 339 100 408 2 10 7 27 10 37 3 10 7 27 9 37 2 10 11
45 20 78 9 33 18 67 20 75 2 8 12 42 22 75 10 33 18 62 19 65 18 92 148 387
201 457 47 62 153 127 334 206 100 43 462 140 700 186 58 12 170 34 250 50
145 30 177 35 169 27z m-4364 -21 c39 -8 102 -22 140 -30 67 -15 140 -30 195
-41 535 -106 744 -172 823 -259 107 -118 247 -414 318 -674 30 -111 77 -292
83 -321 20 -99 91 -426 112 -512 7 -32 14 -63 18 -83 14 -70 46 -235 50 -260
3 -16 8 -39 10 -50 2 -11 7 -47 11 -80 4 -32 9 -68 11 -80 2 -11 7 -36 10 -55
76 -484 123 -677 189 -774 21 -30 21 -34 5 -24 -18 11 -66 105 -75 146 -2 9
-9 33 -15 52 -9 30 -44 184 -55 239 -31 167 -45 241 -48 266 -3 17 -12 73 -22
125 -9 52 -18 109 -21 125 -3 17 -7 37 -9 45 -2 8 -6 32 -9 53 -3 21 -21 115
-40 210 -19 95 -37 183 -40 197 -17 89 -30 147 -71 330 -25 113 -50 219 -55
235 -5 17 -11 41 -14 55 -26 137 -130 429 -207 583 -96 192 -174 280 -294 330
-60 25 -322 97 -407 112 -18 3 -58 12 -88 20 -30 8 -71 17 -90 20 -19 3 -96
19 -170 36 -74 16 -155 34 -180 40 -77 16 -155 37 -145 38 6 1 42 -6 80 -14z
m7185 -209 c0 -2 -8 -10 -17 -17 -16 -13 -17 -12 -4 4 13 16 21 21 21 13z
m-60 -41 c0 -2 -10 -9 -22 -15 -22 -11 -22 -10 -4 4 21 17 26 19 26 11z
m-9860 -61 c0 -2 -9 0 -20 6 -11 6 -20 13 -20 16 0 2 9 0 20 -6 11 -6 20 -13
20 -16z m120 -59 c47 -24 81 -45 77 -45 -10 0 -187 90 -187 96 0 6 20 -3 110
-51z m9600 35 c-35 -24 -54 -31 -30 -11 14 11 30 21 35 21 6 0 3 -5 -5 -10z
m-65 -39 c-37 -36 -360 -182 -398 -180 -7 0 15 10 48 22 73 28 209 90 290 134
63 34 75 39 60 24z m-9419 -50 c5 -4 42 -21 82 -36 39 -16 70 -30 68 -32 -2
-2 -34 8 -72 23 -69 27 -118 54 -98 54 5 0 14 -4 20 -9z m7674 -39 c0 -4 -32
-13 -70 -20 -104 -18 -118 -13 -20 8 47 10 86 18 88 19 1 0 2 -3 2 -7z m-7480
-42 c8 -5 11 -10 5 -10 -5 0 -17 5 -25 10 -8 5 -10 10 -5 10 6 0 17 -5 25 -10z
m60 -20 c18 -12 2 -12 -25 0 -13 6 -15 9 -5 9 8 0 22 -4 30 -9z m7082 -55
c-17 -19 -34 -51 -37 -72 -9 -53 -13 -62 -14 -31 -1 38 16 78 47 111 37 39 40
34 4 -8z m-6819 -22 c-7 -2 -19 -2 -25 0 -7 3 -2 5 12 5 14 0 19 -2 13 -5z
m8314 -9 c-3 -3 -12 -4 -19 -1 -8 3 -5 6 6 6 11 1 17 -2 13 -5z m-8213 -13 c4
-5 -3 -7 -14 -4 -23 6 -26 13 -6 13 8 0 17 -4 20 -9z m8116 -5 c0 -2 -7 -7
-16 -10 -8 -3 -12 -2 -9 4 6 10 25 14 25 6z m-8023 -12 c-3 -3 -12 -4 -19 -1
-8 3 -5 6 6 6 11 1 17 -2 13 -5z m64 -12 c-18 -2 -37 0 -42 5 -5 5 11 6 34 3
41 -4 41 -5 8 -8z m7878 4 c-2 -2 -22 -6 -44 -9 l-40 -6 40 13 c35 12 56 13
44 2z m38 8 c-3 -3 -12 -4 -19 -1 -8 3 -5 6 6 6 11 1 17 -2 13 -5z m-6797 -10
c0 -8 -67 -34 -87 -34 -10 1 5 9 32 19 28 10 51 19 53 20 1 0 2 -1 2 -5z
m-1032 -11 c-10 -2 -26 -2 -35 0 -10 3 -2 5 17 5 19 0 27 -2 18 -5z m42 -3 c0
-5 -2 -10 -4 -10 -3 0 -8 5 -11 10 -3 6 -1 10 4 10 6 0 11 -4 11 -10z m7655 1
c-6 -5 -32 -12 -60 -15 l-50 -5 55 13 c30 8 57 14 60 15 2 0 0 -3 -5 -8z
m-7592 -8 c-7 -2 -19 -2 -25 0 -7 3 -2 5 12 5 14 0 19 -2 13 -5z m7476 -17
c-2 -2 -26 -6 -54 -9 -34 -4 -42 -3 -25 3 25 8 87 13 79 6z m-113 -15 c-3 -5
-22 -11 -41 -13 -42 -5 -33 9 10 15 17 2 31 5 33 6 2 0 1 -3 -2 -8z m-936 -44
c51 -10 64 -15 40 -16 -52 -1 -111 15 -129 35 -13 14 -13 15 -1 7 9 -7 49 -18
90 -26z m815 22 c-51 -10 -92 -10 -50 1 17 4 44 8 60 8 25 0 24 -2 -10 -9z
m-95 -9 c-8 -5 -26 -9 -40 -9 -23 1 -23 2 5 9 43 11 52 11 35 0z m-70 -4 c0
-2 -7 -7 -16 -10 -8 -3 -12 -2 -9 4 6 10 25 14 25 6z m-47 -13 c-7 -2 -21 -2
-30 0 -10 3 -4 5 12 5 17 0 24 -2 18 -5z m-96 -9 c-3 -3 -12 -4 -19 -1 -8 3
-5 6 6 6 11 1 17 -2 13 -5z m-6691 -722 c-10 -2 -22 0 -28 6 -6 6 0 7 19 4 21
-5 23 -7 9 -10z m91 -18 c-3 -3 -12 -4 -19 -1 -8 3 -5 6 6 6 11 1 17 -2 13 -5z
m40 -10 c-3 -3 -12 -4 -19 -1 -8 3 -5 6 6 6 11 1 17 -2 13 -5z m6143 -98 c0
-2 -18 -15 -40 -30 -22 -14 -40 -23 -40 -19 0 5 17 18 38 30 40 24 42 25 42
19z m-5754 -42 c18 -14 18 -14 -6 -3 -31 14 -36 19 -24 19 6 0 19 -7 30 -16z
m71 -36 c82 -47 192 -136 283 -228 87 -88 221 -253 252 -311 8 -13 25 -42 39
-64 66 -105 174 -345 212 -475 31 -104 55 -195 72 -270 24 -110 24 -110 14
-110 -5 0 -9 9 -9 21 0 11 -12 66 -26 122 -14 56 -27 109 -29 117 -12 49 -58
188 -91 270 -156 391 -425 734 -719 918 -57 36 -56 43 2 10z m5532 -45 c-35
-38 -66 -70 -69 -73 -12 -11 -106 -129 -120 -150 -8 -12 -29 -42 -47 -65 -38
-50 -163 -256 -199 -326 -13 -27 -27 -49 -29 -49 -8 0 57 126 116 227 57 96
139 217 195 285 38 46 205 218 213 218 2 0 -25 -30 -60 -67z m-484 -712 c-21
-43 -29 -39 -8 4 9 19 18 33 21 31 2 -2 -4 -18 -13 -35z m-132 -317 c-80 -213
-78 -208 -123 -334 -39 -109 -89 -259 -95 -284 -1 -6 -5 -18 -8 -26 -10 -25
-56 -214 -62 -256 -3 -22 -8 -46 -11 -54 -3 -8 -8 -37 -11 -65 -3 -27 -8 -52
-10 -55 -5 -5 1 70 13 163 14 113 126 476 231 747 66 171 126 320 129 317 2
-2 -22 -70 -53 -153z m-2026 -296 c-3 -8 -6 -5 -6 6 -1 11 2 17 5 13 3 -3 4
-12 1 -19z m-26 -75 c-12 -20 -14 -14 -5 12 4 9 9 14 11 11 3 -2 0 -13 -6 -23z
m-1976 -75 c3 -29 9 -61 11 -70 3 -10 1 -18 -5 -18 -6 0 -11 15 -11 33 0 17
-4 49 -9 70 -5 20 -5 37 -1 37 5 0 11 -24 15 -52z m21 -219 c4 -63 4 -112 2
-109 -3 3 -9 57 -12 120 -4 63 -5 112 -2 109 3 -3 9 -57 12 -120z m1 -431 c-2
-18 -4 -6 -4 27 0 33 2 48 4 33 2 -15 2 -42 0 -60z m-2 -50 c-2 -7 -6 -51 -9
-98 -3 -47 -7 -94 -10 -105 -5 -29 -15 -85 -21 -125 -22 -143 -97 -424 -117
-436 -7 -4 -7 0 -1 12 9 17 39 119 48 162 2 9 10 44 19 77 8 33 17 74 20 90 3
17 7 39 9 50 3 11 8 40 12 65 4 25 9 54 11 65 2 11 7 43 10 70 4 28 8 57 10
65 1 8 3 39 3 68 1 28 5 52 11 52 5 0 8 -6 5 -12z m3687 -398 c3 -16 1 -30 -4
-30 -4 0 -8 14 -8 30 0 17 2 30 4 30 2 0 6 -13 8 -30z m27 -162 c13 -68 27
-130 31 -138 5 -8 10 -28 13 -45 33 -193 225 -645 372 -875 59 -92 159 -236
175 -250 3 -3 21 -25 40 -50 106 -137 303 -339 475 -487 113 -96 152 -128 244
-198 51 -38 98 -74 105 -80 62 -52 398 -273 606 -397 215 -129 275 -162 525
-293 197 -104 294 -189 253 -223 -7 -5 -40 -13 -73 -18 -74 -9 -305 -11 -305
-3 0 4 46 7 103 8 133 2 240 11 251 22 28 26 -59 98 -244 201 -178 99 -499
286 -620 361 -269 166 -641 428 -756 532 -6 6 -33 28 -60 50 -76 63 -161 142
-264 245 -262 264 -451 522 -599 820 -118 237 -187 416 -255 670 -28 104 -56
270 -46 270 3 0 17 -55 29 -122z m-3898 -285 c-12 -20 -14 -14 -5 12 4 9 9 14
11 11 3 -2 0 -13 -6 -23z m-20 -45 c-35 -91 -211 -418 -225 -418 -4 0 0 12 10
28 45 68 181 327 205 389 5 13 11 23 14 23 2 0 1 -10 -4 -22z m-312 -559 c-67
-101 -226 -319 -249 -339 -3 -3 -17 -21 -31 -40 -15 -19 -36 -46 -48 -60 -12
-14 -43 -50 -69 -79 -152 -176 -399 -424 -522 -525 -19 -15 -53 -45 -75 -65
-22 -20 -87 -76 -145 -125 -58 -50 -120 -103 -137 -120 -18 -16 -33 -26 -33
-20 1 5 22 26 48 46 26 21 58 48 72 60 14 13 59 52 100 88 468 404 855 830
1097 1207 36 57 68 101 70 99 2 -2 -33 -59 -78 -127z m-1334 -1397 c-11 -11
-54 -47 -95 -82 -41 -34 -86 -71 -99 -82 -12 -11 -71 -58 -130 -106 -58 -48
-108 -89 -111 -93 -3 -3 -61 -53 -130 -109 -146 -121 -132 -109 -209 -184 -34
-33 -61 -63 -61 -68 0 -5 10 -13 23 -17 15 -6 2 -9 -45 -8 -38 1 -68 4 -68 7
0 3 21 22 48 42 26 20 56 45 67 55 11 10 38 31 60 47 22 17 42 33 45 36 3 3
28 24 55 45 28 22 52 42 55 45 3 3 21 17 40 31 19 15 46 36 60 48 31 26 19 16
190 153 80 64 183 148 230 187 81 67 118 93 75 53z m2420 -652 c3 -5 1 -10 -4
-10 -6 0 -11 5 -11 10 0 6 2 10 4 10 3 0 8 -4 11 -10z m2652 3 c-7 -7 -159 -4
-166 3 -2 2 35 4 84 4 49 0 85 -3 82 -7z m53 3 c0 -3 -4 -8 -10 -11 -5 -3 -10
-1 -10 4 0 6 5 11 10 11 6 0 10 -2 10 -4z m100 -9 c0 -8 -76 -4 -84 4 -3 3 15
5 39 4 25 0 45 -3 45 -8z m-3165 -7 c-3 -5 -16 -10 -28 -9 -20 1 -20 2 3 9 14
4 26 8 28 9 2 1 0 -3 -3 -9z m80 1 c-8 -7 -65 -8 -60 -1 2 3 18 6 34 6 17 0
28 -2 26 -5z m48 2 c-7 -2 -19 -2 -25 0 -7 3 -2 5 12 5 14 0 19 -2 13 -5z
m105 0 c-15 -2 -42 -2 -60 0 -18 2 -6 4 27 4 33 0 48 -2 33 -4z m65 0 c-7 -2
-19 -2 -25 0 -7 3 -2 5 12 5 14 0 19 -2 13 -5z m3407 -8 c69 -4 281 -13 383
-17 42 -1 77 -5 77 -9 0 -4 -39 -5 -87 -4 -88 3 -368 15 -473 20 -30 2 -138 6
-240 10 -102 4 -187 10 -190 12 -5 5 397 -5 530 -12z m-3980 -5 c-7 -4 -65 -9
-128 -9 -64 -1 -119 -4 -124 -7 -4 -3 -8 -1 -8 5 0 9 36 12 228 17 24 1 38 -2
32 -6z m219 6 c-7 -8 -169 -9 -176 -2 -3 3 36 6 87 6 51 0 91 -2 89 -4z m-591
-22 c-8 -8 -208 -11 -208 -3 0 5 44 10 98 11 92 3 118 1 110 -8z m102 6 c0 -4
-20 -7 -45 -7 -25 0 -45 3 -45 6 0 3 20 6 45 7 25 0 45 -3 45 -6z m-320 -12
c0 -4 -33 -8 -72 -9 -40 0 -102 -2 -138 -4 -36 -2 -137 -6 -225 -9 -288 -10
-499 -18 -547 -20 -27 -1 -48 2 -48 6 0 4 30 8 68 9 37 0 108 2 157 4 110 4
335 13 550 21 88 3 161 7 162 7 7 7 93 2 93 -5z m5230 -5 c0 -5 -30 -7 -67 -5
-119 5 -131 9 -30 10 53 1 97 -1 97 -5z m180 -7 c14 -2 -12 -4 -57 -5 -46 0
-83 2 -83 7 0 6 81 6 140 -2z m66 -8 c3 -4 -1 -5 -10 -4 -8 1 -18 5 -22 8 -3
4 1 5 10 4 8 -1 18 -5 22 -8z m44 -4 c0 -2 -7 -4 -15 -4 -8 0 -15 4 -15 10 0
5 7 7 15 4 8 -4 15 -8 15 -10z m128 -1 c-21 -2 -57 -2 -80 0 -24 2 -7 4 37 4
44 0 63 -2 43 -4z m244 -11 c4 -4 -37 -6 -90 -4 -53 2 -100 6 -104 10 -4 4 37
6 90 4 53 -2 100 -6 104 -10z m-6972 -4 c0 -5 -33 -8 -72 -8 -40 0 -172 -3
-293 -7 -121 -3 -218 -3 -215 0 3 2 122 8 265 12 143 4 261 8 263 10 7 6 52 0
52 -7z m40 4 c0 -5 -7 -9 -15 -9 -8 0 -15 4 -15 9 0 4 7 8 15 8 8 0 15 -4 15
-8z m7110 -6 c52 -3 128 -5 168 -6 39 0 72 -4 72 -9 0 -5 -15 -7 -32 -6 -27 3
-314 17 -355 18 -7 0 -13 4 -13 8 0 4 15 6 33 4 17 -3 75 -7 127 -9z m-7743
-12 c-3 -3 -12 -4 -19 -1 -8 3 -5 6 6 6 11 1 17 -2 13 -5z m8033 -6 c0 -4 -9
-8 -20 -8 -11 0 -20 4 -20 9 0 6 9 9 20 8 11 -1 20 -5 20 -9z m135 -2 c11 -2
-13 -4 -52 -5 -40 0 -73 2 -73 7 0 6 79 5 125 -2z m49 -4 c3 -5 -1 -9 -9 -9
-8 0 -12 4 -9 9 3 4 7 8 9 8 2 0 6 -4 9 -8z m171 -6 c11 -2 -13 -4 -53 -5 -40
0 -71 2 -68 7 4 7 73 6 121 -2z m68 -3 c-7 -2 -21 -2 -30 0 -10 3 -4 5 12 5
17 0 24 -2 18 -5z"/>
</g>
</svg>
